<svg id="Layer_1" data-name="Layer 1" xmlns="http://www.w3.org/2000/svg" viewBox="0 0 993.36 466.88"><defs><style>.cls-1{fill:#fff;fill-rule:evenodd;}</style></defs><title>ashbringer_main_logo</title><path class="cls-1" d="M512.19,145.58c.35-.56,1.45-.35,2.06-.65,5.44,3.33,12.75,6.34,18.35,11.23,1.09-.77,1.49-.14,2.39-1,0,0,.86-7.75.15-9.71s-1.42-.35-2.49.89-.18,1.6-2.31,1.07c-2.92-.73-3.58-3.76-5.08-5.27a3.67,3.67,0,0,0-.07-.42,9.64,9.64,0,0,1-.53-3.91c0-1.06.53-2,.53-3.37s-.53-1.07-1.78-1.42c-1-.3-1.95.65-2.85,1.69-2.71,1.75-3.21-.19-5.14-1.16-2.13-1.06-4.48-2.7-4.2,3.8C511.34,140.09,510.51,143.28,512.19,145.58Z" transform="translate(-3.32 -7.56)"/><path class="cls-1" d="M504.93,161.82c3,3.41,5.17,7.47,4.7,11.34,1.42,5.66,1,11.66,1.59,18.1a66.66,66.66,0,0,1-.05,7.16c-.1,5.14-.3,10.15-.09,15,.07,1.69.74,3.45.64,5.13-.12,2.1-1.59,4.41,0,5.12-1.43,8.73,1.16,18-1.87,26.22,2.4,2.62.58,5.62.62,8.54,0,1,.65,2.07.67,3.08,0,.78-.4,1.3-.36,2,.1,1.88,1.37,3,1.68,3.79.17.41-.41.84-.34,1,.14.36.87.66,1,1a34.18,34.18,0,0,0,2,4.81c4.08,7.41,10.24,14.1,14.87,20.38.83.16.75-.61,1.72-.31-.28,2,1.93,1.5,3,2.1.16-2,.33-3.88-.64-5.47a2.65,2.65,0,0,0,.69-2c.37-3.48-.27-7.48-.27-11.26,0-2.14-.34-4.35-.3-6.49.09-4.64.85-9.57-.59-14,.53,0,1.18.05,1-.67-1.28-3.53,1-10.71-.58-16h-.34c.29-4.9,1.42-7.73.08-12.28.76.07.6-.35.69-1,.62-4.84-.37-9.55-.26-14,.05-1.81,1-3.7.72-5.45-.09-.69-.66-1-.67-1.71,0-1.38.33-2.71.37-4.09.16-5.28-.78-12.18.44-16.36.22-.73-.28-2-.32-2.74-.06-1.36.74-3,.71-4.08s-.95-2.17-1-3.42c0-1.08.87-2.18.7-3.06-.09-.48-1.38-.86-.67-1.38-2.74.33-4.36-2.22-7.49-2.51.26-1.28-1.3-.77-1.36-1.73-2.47-.86-4.92-1.75-6.45-3.52-3.2-1.34-8.08-3.8-9.86-5.29a11.15,11.15,0,0,0-3.06-2.1c-1.93-.94-3.7-1.84-5.44-2.83-1.94-1.09-5.16-4.25-7.16-1.15C498.2,154.46,501.46,157.82,504.93,161.82Zm26.35,40c-.47-.11-.28-.86-.34-1.37C532.14,200.19,531.52,201.59,531.28,201.84Zm0,46.38c.73.23.31,2.11,0,2.39C530.28,250.08,531.6,249.12,531.32,248.22Zm-.38,5.46c1.48.16-.37,2,0,0Zm-9,15.18a1.49,1.49,0,0,1-.68-1.37C521.9,267.58,522.07,268.09,522,268.86Zm-7.73-71.41.68,0v.67h-.68Z" transform="translate(-3.32 -7.56)"/><path class="cls-1" d="M756.21,293.88a5.14,5.14,0,0,0-.09.6A.65.65,0,0,0,756.21,293.88Z" transform="translate(-3.32 -7.56)"/><path class="cls-1" d="M535.31,351.51c1.32,0,3-.65,4.43-.61,1.11,0,1.75.53,2.73.39,1.17-.15,1.47-.9,2.74-1.31.57-.19,1.4-.11,2-.31.81-.25,1.67-.38,2.4-.64,1.42-.5,2.71-1.37,4.11-2,3.73-1.61,8.42-2.08,10.61-5.28,1.64-2.39.26-1.67-.54-1.53-.26.05-1.84.2-2.49.38-4.38,1.19-7.94,1.81-11.64.9-5.71-1.4-10.17-5.1-15-6.4-4.1-4.07-9.14-7.12-12.89-11.48-.93-1.08-1.47-2.53-2.36-3.79s-2.15-2.26-3.05-3.47c-.63-.85-1.06-1.89-1.69-2.76s-1.46-1.56-2-2.42c-.16-.24.15-.77,0-1-.61-1.08-2-2-2.71-3.12-1.14-1.72-1.65-3.64-3-4.48-1.38-3.63-3.85-6.19-6.09-9,0-.57,0-1.14,0-1.7-.8-.13-1.47-.38-1.7-1.06-2.84-5.59-8-8.92-11.52-13.84-6.89-5-13.77-10.06-20.71-15,1.4-.23,2.46-1.43,3.42-2.33,3.22-2.94,5.7-6.35,8.93-9a3,3,0,0,1,2.74-.64c4.08-7.76,11.88-13,13.45-22.27a23.78,23.78,0,0,1-1-11.28c.11-.66-.45-.68-.67-1,.89-3.33-.21-7.06.07-10.91.07-1,.62-1.95.7-3.06.47-6.39-1.51-12.59-1.59-18.45-.05-3.74-1.62-5.62-3-9.26s-2.11-7.05-4-9.27c-1.35-1.57-3.47-2.17-3.73-4.16-3.16-2.37-7.05-2.8-10.19-5.64-.07.51-.83.3-1.37.32-1.7-2.63-6.4-2.34-8.16-4.92-1.61.12-1.78-1.19-3.4-1.08a14.1,14.1,0,0,0-6.8-3.53c.31-1.09-1.12-.49-1-1.38-.8-.12-1.28-.56-2.39-.38a23.05,23.05,0,0,0-7.13-4.9c-.75-.36-1.91-.29-2.73-.73-1.11-.62-1.92-1.73-3.05-2.45-4.38-2.75-10.34-6.44-14.29-6-.88,4,4.41,4.39,6.44,6.59,1.94,5.53,4,13.12,2.61,19.83,1.15,3,.16,5.84.28,9.21s.61,9,.25,13.31.67,9,.6,13.65c0,.84-.64,1.86-.7,2.72-.16,2.13.33,15.89.29,18.43,0,1.43-.33,3-.37,4.43s.69,3.23.65,4.79c0,1.24-.73,2.49-.7,3.73.05,2.38,1,4.85,1,7.18,0,3-.83,5.94-.74,8.86.15,4.32-.74,7.62-1.09,11.57-.17,1.87.39,3.63.3,5.47,0,.6-.58,1.64-.69,2.37a52.42,52.42,0,0,1-1.76,7.47c2.94.33,4.73-1.25,6.16-3.3.78-1.12,2.86-3.52,3.1-4.38s1.49-1,1.71-1.34c.41-.52.29-1.55.7-2s1.33-.58,1.71-1c1.47-1.55,2.23-3.36,3.44-4.71-.4-.07-1,0-1-.37l1.71,0c1.26-4,4-6.16,5.52-9.46.46-1,.9-2.27,1.38-3.38,1.93-4.46,1.6-9,2.14-14.29.11-1.12.65-2,.7-3.06s-.27-2.27-.31-3.41c-.73-17.54-1.57-46.81-.85-64.24,6,4,17,5.33,18.49,13.71a3.06,3.06,0,0,0-1.37,1.34c.45,8.05.89,14.51.89,21.16,0,4.91-.78,9.42-.43,13.3a1.63,1.63,0,0,0,.67,1.37,8.16,8.16,0,0,0-.69,2c.46.68.31,2,.66,2.74-.08.49-.56.57-.68,1,.88,2.77.41,5.49.28,8.19-.06,1.37-.45,2.81-.36,3.74,0,.24.68.38.67,1s-.72,1.39-.69,2,.68,1.16.67,1.72c0,.12-.65.47-.69,1-.14,2,.05,4.28,0,6.14,0,.43-.65.72-.69,1a10.72,10.72,0,0,0,.32,4.1c-2.56,4.7-3.32,11.25-5.9,15.92-.65.14-.87.73-1.71.66.1,1.48-.84,1.89-1.05,3C456,263.9,451,269.88,445.4,275.25c-2.57,1-3.91,3.32-5.49,5.36-1.19.73-2.83,1-2.75,3,.26.08.39.29.33.69,2.93,2,8.15.89,10.91,1.21.53.27.5,1.09,1.36,1.05,2.24-.21,2.32,1.71,4.08,1.09,3.52,1.77,6.75,3.8,10.54,5.3.84,1.93,3.17,2.75,4.75,4.18s2.84,3.28,4.41,4.51a22.5,22.5,0,0,0,2.38,1.4c.77.48,1.11,1.1,2,1.06-.24,1.25.73,1.33.66,2.4,1.46,1.06,2.86,2.18,3.39,4.15a86.3,86.3,0,0,1,9.82,10.41,40,40,0,0,1,5.41,8.28c1.38,1.48,3.17,2.56,4.07,4.5.77.49,1.29-.85,1.36,0,.25,1.35,1.65,1.56,1.69,3.11,1.24.25,1.56,1.41,3.06,1.41,5.5,6.39,13.08,9.32,21.75,13C531,350.38,533.33,351.53,535.31,351.51ZM434.86,162.86c-.4-.06-.28-.63-.33-1,.58-.11.64.28.68.69C434.92,162.45,434.88,162.65,434.86,162.86Zm4.92-21.4c-.81,1.08-1.38-1.22,0,0Z" transform="translate(-3.32 -7.56)"/><path class="cls-1" d="M716.79,8.9a1.89,1.89,0,0,0,.28-.68,2.41,2.41,0,0,0-.47-.65,2.85,2.85,0,0,0-.77,0,2.18,2.18,0,0,0-.28.69A3.19,3.19,0,0,0,716,9,2.46,2.46,0,0,0,716.79,8.9Z" transform="translate(-3.32 -7.56)"/><path class="cls-1" d="M657.36,100.21a2,2,0,0,0,.29-.69,2.44,2.44,0,0,0-.48-.64,2.85,2.85,0,0,0-.77,0,2.85,2.85,0,0,0-.28.7,3.24,3.24,0,0,0,.48.64A2.42,2.42,0,0,0,657.36,100.21Z" transform="translate(-3.32 -7.56)"/><path class="cls-1" d="M641.78,124.87a1.93,1.93,0,0,0,.28-.69,2.21,2.21,0,0,0-.47-.64,2.5,2.5,0,0,0-.77,0,2.33,2.33,0,0,0-.28.69,3.19,3.19,0,0,0,.47.64A2.46,2.46,0,0,0,641.78,124.87Z" transform="translate(-3.32 -7.56)"/><path class="cls-1" d="M726.79,25.35a7.29,7.29,0,0,0,2,1.16,8.61,8.61,0,0,0,2-1,5.44,5.44,0,0,0,0-2.12,7.81,7.81,0,0,0-2-1.18,8.72,8.72,0,0,0-2,1A5.28,5.28,0,0,0,726.79,25.35Z" transform="translate(-3.32 -7.56)"/><path class="cls-1" d="M741.77,66.17a13.62,13.62,0,0,0-2.27,3.43,15.77,15.77,0,0,0,1.57,3.64,9.66,9.66,0,0,0,3.82.23A13.58,13.58,0,0,0,747.15,70a14.92,14.92,0,0,0-1.58-3.63A9.22,9.22,0,0,0,741.77,66.17Z" transform="translate(-3.32 -7.56)"/><path class="cls-1" d="M750.9,67.44a11.07,11.07,0,0,0,2.66-1.29,7.05,7.05,0,0,0,.05-2.85A10.45,10.45,0,0,0,751,61.72a11.57,11.57,0,0,0-2.67,1.3,7.08,7.08,0,0,0,0,2.86A10.2,10.2,0,0,0,750.9,67.44Z" transform="translate(-3.32 -7.56)"/><path class="cls-1" d="M737.93,95.12c1.09.18,5.92-2.1,6.32-2.64s1.18-6.68.94-7.34-4.81-4.53-5.45-4.63c-1-.18-6,2.14-6.34,2.69-.52.72-1.15,6.65-.9,7.31S737.27,95,737.93,95.12Z" transform="translate(-3.32 -7.56)"/><path class="cls-1" d="M748.37,140.93c.65,0,6.71-3.74,7-4.44.58-1.16-.25-7.35-.73-8-.56-.79-7-3.67-7.86-3.63-.66,0-6.73,3.77-7.07,4.45-.57,1.1.29,7.38.77,8C741.15,138.18,747.54,141,748.37,140.93Z" transform="translate(-3.32 -7.56)"/><path class="cls-1" d="M732.79,120a17.34,17.34,0,0,0,3.17,3.78,18.61,18.61,0,0,0,4.73-.57c.55-.42,1.65-3.87,1.56-4.31a16.14,16.14,0,0,0-3.17-3.76,17.7,17.7,0,0,0-4.71.57C733.79,116.16,732.71,119.55,732.79,120Z" transform="translate(-3.32 -7.56)"/><path class="cls-1" d="M740.67,112.48c.81-.06,5.4-3.07,5.72-3.64s.42-6,.1-6.55c-.51-.88-5-3-5.58-3s-5.44,3.08-5.77,3.63-.4,6.07-.09,6.58C735.53,110.38,740,112.52,740.67,112.48Z" transform="translate(-3.32 -7.56)"/><path class="cls-1" d="M753.47,107.87a6.14,6.14,0,0,0,1.34-2.14,8.91,8.91,0,0,0-1.25-2.39,9.88,9.88,0,0,0-2.61-.24,6.13,6.13,0,0,0-1.35,2.12,9.37,9.37,0,0,0,1.26,2.41A10.28,10.28,0,0,0,753.47,107.87Z" transform="translate(-3.32 -7.56)"/><path class="cls-1" d="M650.56,140.72c-.38.52-1.36,7.38-1.06,8.05.47,1.11,5.69,4.36,6.46,4.4,1,.06,7.07-3,7.55-3.64.39-.5,1.36-7.33,1.06-8-.51-1.16-5.65-4.37-6.42-4.41C657.21,137,651,140.08,650.56,140.72Z" transform="translate(-3.32 -7.56)"/><path class="cls-1" d="M645.65,146.76a7.68,7.68,0,0,0,1.87-2.38,10.42,10.42,0,0,0-1.2-3,11.63,11.63,0,0,0-3.08-.63,7.51,7.51,0,0,0-1.88,2.36,11,11,0,0,0,1.2,3A12.2,12.2,0,0,0,645.65,146.76Z" transform="translate(-3.32 -7.56)"/><path class="cls-1" d="M654.69,129.34c-.3-.93-4-3.81-4.55-3.91s-5.69,1.7-6.11,2.15a24.72,24.72,0,0,0-1.48,6.07c.27.89,4,3.81,4.59,3.9.77.13,5.66-1.71,6.08-2.16A23.59,23.59,0,0,0,654.69,129.34Z" transform="translate(-3.32 -7.56)"/><path class="cls-1" d="M658.72,130.15a6.84,6.84,0,0,0-.13,2.72,9.66,9.66,0,0,0,2.45,1.58,10.78,10.78,0,0,0,2.58-1.15,6.6,6.6,0,0,0,.14-2.7,9.66,9.66,0,0,0-2.45-1.6A10.85,10.85,0,0,0,658.72,130.15Z" transform="translate(-3.32 -7.56)"/><path class="cls-1" d="M653.76,119.75c-.37.67,0,4.58.33,5a17.59,17.59,0,0,0,4.8,2.37,19.58,19.58,0,0,0,4.46-2.63c.39-.71,0-4.57-.3-5a18,18,0,0,0-4.81-2.4A20.52,20.52,0,0,0,653.76,119.75Z" transform="translate(-3.32 -7.56)"/><path class="cls-1" d="M534.48,126.07a10.6,10.6,0,0,0-4-1.7,15.8,15.8,0,0,0-3.71,2.78,17.31,17.31,0,0,0,.29,4.47,10.92,10.92,0,0,0,4,1.68,15.15,15.15,0,0,0,3.69-2.78A17.16,17.16,0,0,0,534.48,126.07Z" transform="translate(-3.32 -7.56)"/><path class="cls-1" d="M527.94,106.34a3.23,3.23,0,0,0,.94-.22,4.18,4.18,0,0,0,.32-.88,2.25,2.25,0,0,0-.61-.65,3.29,3.29,0,0,0-1,.21,3.86,3.86,0,0,0-.32.88A2.19,2.19,0,0,0,527.94,106.34Z" transform="translate(-3.32 -7.56)"/><path class="cls-1" d="M519.42,116.23a5.08,5.08,0,0,0,1.37-.32,4.8,4.8,0,0,0,.47-1.28,3.11,3.11,0,0,0-.89-1A4.86,4.86,0,0,0,519,114a6,6,0,0,0-.47,1.29A3.36,3.36,0,0,0,519.42,116.23Z" transform="translate(-3.32 -7.56)"/><path class="cls-1" d="M652.42,111.4a13.88,13.88,0,0,0,3.8,1.88,15.59,15.59,0,0,0,3.53-2.08,9.81,9.81,0,0,0-.24-3.94,14.76,14.76,0,0,0-3.81-1.9,16.38,16.38,0,0,0-3.55,2.09A9.89,9.89,0,0,0,652.42,111.4Z" transform="translate(-3.32 -7.56)"/><path class="cls-1" d="M646.33,102.45a8.28,8.28,0,0,0-3.24.84,11.66,11.66,0,0,0-1,3.46,13.16,13.16,0,0,0,2.29,2.61,8.18,8.18,0,0,0,3.23-.82,12,12,0,0,0,1-3.47A14.17,14.17,0,0,0,646.33,102.45Z" transform="translate(-3.32 -7.56)"/><path class="cls-1" d="M646.34,114.88a12.08,12.08,0,0,0-2.2,2.67,13.49,13.49,0,0,0,1,3.18,8,8,0,0,0,3.17.52,11.12,11.12,0,0,0,2.18-2.66,12.17,12.17,0,0,0-1-3.17A7.87,7.87,0,0,0,646.34,114.88Z" transform="translate(-3.32 -7.56)"/><path class="cls-1" d="M640,93.69a14.37,14.37,0,0,0,2.22,3.79,16.12,16.12,0,0,0,4.23.22,10.13,10.13,0,0,0,2-3.54,15.13,15.13,0,0,0-2.21-3.81,16.32,16.32,0,0,0-4.25-.22A10.22,10.22,0,0,0,640,93.69Z" transform="translate(-3.32 -7.56)"/><path class="cls-1" d="M651.74,102.52a5.22,5.22,0,0,0,.74-1.25,3.32,3.32,0,0,0-.75-1.19,5.07,5.07,0,0,0-1.51.06,5.91,5.91,0,0,0-.75,1.26,3.58,3.58,0,0,0,.76,1.19A4.73,4.73,0,0,0,651.74,102.52Z" transform="translate(-3.32 -7.56)"/><path class="cls-1" d="M640.75,111.75A5.91,5.91,0,0,0,640,113a3.58,3.58,0,0,0,.76,1.19,5.06,5.06,0,0,0,1.51-.07,5.42,5.42,0,0,0,.74-1.25,3.32,3.32,0,0,0-.75-1.19A5.07,5.07,0,0,0,640.75,111.75Z" transform="translate(-3.32 -7.56)"/><path class="cls-1" d="M647.9,87.38a10.41,10.41,0,0,0,2.34-2.24,11.71,11.71,0,0,0-.57-3.06,7.36,7.36,0,0,0-2.88-.86,11.09,11.09,0,0,0-2.35,2.23,12.66,12.66,0,0,0,.57,3.08A7.68,7.68,0,0,0,647.9,87.38Z" transform="translate(-3.32 -7.56)"/><path class="cls-1" d="M637.3,83.08a10.68,10.68,0,0,0,2.32,1.42,6.76,6.76,0,0,0,2.23-1.39,9.08,9.08,0,0,0-.1-2.81,10.58,10.58,0,0,0-2.31-1.41,6.52,6.52,0,0,0-2.23,1.37A9.48,9.48,0,0,0,637.3,83.08Z" transform="translate(-3.32 -7.56)"/><path class="cls-1" d="M637.69,75.57a4.41,4.41,0,0,0,1.54-.95,6.26,6.26,0,0,0-.07-1.94,7.27,7.27,0,0,0-1.59-1,4.71,4.71,0,0,0-1.54.94,6.67,6.67,0,0,0,.06,1.95A7.42,7.42,0,0,0,637.69,75.57Z" transform="translate(-3.32 -7.56)"/><path class="cls-1" d="M654.51,94.12a7,7,0,0,0,.89-2,8,8,0,0,0-1.15-1.79,5.15,5.15,0,0,0-2,.21,7.61,7.61,0,0,0-.91,2,8,8,0,0,0,1.16,1.79A5,5,0,0,0,654.51,94.12Z" transform="translate(-3.32 -7.56)"/><path class="cls-1" d="M755.59,114.41a20.75,20.75,0,0,0-4.58-3.25c-.88-.06-4.5,2-4.78,2.51a19.68,19.68,0,0,0-.22,5.82,21.49,21.49,0,0,0,4.59,3.25c.83.08,4.51-2.09,4.78-2.54A19.22,19.22,0,0,0,755.59,114.41Z" transform="translate(-3.32 -7.56)"/><path class="cls-1" d="M755.94,96.12a16.91,16.91,0,0,0-.27-5,18.1,18.1,0,0,0-4.18-2.44c-.76,0-3.71,2.11-3.91,2.53a16.48,16.48,0,0,0,.25,5A18.75,18.75,0,0,0,752,98.67C752.74,98.67,755.74,96.53,755.94,96.12Z" transform="translate(-3.32 -7.56)"/><path class="cls-1" d="M751.6,71.9A17.28,17.28,0,0,0,748,75.46a19.11,19.11,0,0,0,1,4.81c.48.55,4.11,1.38,4.56,1.25A16.44,16.44,0,0,0,757.1,78a18.27,18.27,0,0,0-1-4.79C755.62,72.6,752,71.77,751.6,71.9Z" transform="translate(-3.32 -7.56)"/><path class="cls-1" d="M747.5,57a8.81,8.81,0,0,0,2.32-.64,5.64,5.64,0,0,0,.47-2.27,8.43,8.43,0,0,0-1.87-1.67,9.68,9.68,0,0,0-2.34.64,5.81,5.81,0,0,0-.46,2.29A8.14,8.14,0,0,0,747.5,57Z" transform="translate(-3.32 -7.56)"/><path class="cls-1" d="M736,44a13.39,13.39,0,0,0,3.48,2.07A15,15,0,0,0,743,44.38a9.26,9.26,0,0,0,.07-3.77,14,14,0,0,0-3.48-2.08,15.58,15.58,0,0,0-3.53,1.72A9.6,9.6,0,0,0,736,44Z" transform="translate(-3.32 -7.56)"/><path class="cls-1" d="M743.31,37.4a4.47,4.47,0,0,0,1.14-.56,3,3,0,0,0,0-1.22,4.53,4.53,0,0,0-1.13-.68,5.1,5.1,0,0,0-1.15.56,3.41,3.41,0,0,0,0,1.23A4.43,4.43,0,0,0,743.31,37.4Z" transform="translate(-3.32 -7.56)"/><path class="cls-1" d="M729.65,33.48a4.41,4.41,0,0,0,.78,1,2.89,2.89,0,0,0,1.2-.23,4.46,4.46,0,0,0,.43-1.24,4.66,4.66,0,0,0-.77-1,3.11,3.11,0,0,0-1.21.23A4.26,4.26,0,0,0,729.65,33.48Z" transform="translate(-3.32 -7.56)"/><path class="cls-1" d="M750.51,48.82a3.06,3.06,0,0,0,1.2-.22,4.44,4.44,0,0,0,.44-1.25,5.35,5.35,0,0,0-.78-1,3.09,3.09,0,0,0-1.2.23,4.55,4.55,0,0,0-.44,1.25A5,5,0,0,0,750.51,48.82Z" transform="translate(-3.32 -7.56)"/><path class="cls-1" d="M736.94,33.25a10.5,10.5,0,0,0,2.45-1.2,6.46,6.46,0,0,0,.05-2.62A9.6,9.6,0,0,0,737,28a10.54,10.54,0,0,0-2.46,1.19,6.55,6.55,0,0,0,0,2.64A9.33,9.33,0,0,0,736.94,33.25Z" transform="translate(-3.32 -7.56)"/><path class="cls-1" d="M721,14.5a6.08,6.08,0,0,0,1.43-.69,4,4,0,0,0,0-1.53,5.42,5.42,0,0,0-1.42-.84,6.27,6.27,0,0,0-1.43.69,4,4,0,0,0,0,1.53A5.54,5.54,0,0,0,721,14.5Z" transform="translate(-3.32 -7.56)"/><path class="cls-1" d="M727.14,18.68a6,6,0,0,0,1.3-.64,3.37,3.37,0,0,0,0-1.41,5.37,5.37,0,0,0-1.3-.77,5.3,5.3,0,0,0-1.31.64,3.54,3.54,0,0,0,0,1.41A5.07,5.07,0,0,0,727.14,18.68Z" transform="translate(-3.32 -7.56)"/><path class="cls-1" d="M626.74,62a5.24,5.24,0,0,0,1.3-.64,3.33,3.33,0,0,0,0-1.4,5.1,5.1,0,0,0-1.3-.78,6.11,6.11,0,0,0-1.31.64,3.54,3.54,0,0,0,0,1.41A4.8,4.8,0,0,0,626.74,62Z" transform="translate(-3.32 -7.56)"/><path class="cls-1" d="M537.8,100.8a5,5,0,0,0,1.23-.6,3.41,3.41,0,0,0,0-1.31,4.49,4.49,0,0,0-1.22-.73,5.18,5.18,0,0,0-1.23.6,3.46,3.46,0,0,0,0,1.32A5.08,5.08,0,0,0,537.8,100.8Z" transform="translate(-3.32 -7.56)"/><path class="cls-1" d="M632.84,69.64a7.61,7.61,0,0,0,1.63-1.57,8.8,8.8,0,0,0-.41-2.14,5.17,5.17,0,0,0-2-.6,7.69,7.69,0,0,0-1.64,1.58,8.51,8.51,0,0,0,.41,2.15A5.43,5.43,0,0,0,632.84,69.64Z" transform="translate(-3.32 -7.56)"/><path class="cls-1" d="M532.41,111.15a7.61,7.61,0,0,0,1.63-1.57,7.94,7.94,0,0,0-.41-2.14,5.17,5.17,0,0,0-2-.6,8.15,8.15,0,0,0-1.64,1.57,8.52,8.52,0,0,0,.42,2.16A5.38,5.38,0,0,0,532.41,111.15Z" transform="translate(-3.32 -7.56)"/><path class="cls-1" d="M516.64,130.65c.79.39,5.32-.33,5.77-.67s2.5-5.14,2.46-5.74a23,23,0,0,0-3.31-5c-.86-.42-5.31.29-5.77.64a22,22,0,0,0-2.49,5.73A23.83,23.83,0,0,0,516.64,130.65Z" transform="translate(-3.32 -7.56)"/><path class="cls-1" d="M532,136a12.51,12.51,0,0,0-3.7,1.17,14.31,14.31,0,0,0-1,3.58,8.6,8.6,0,0,0,2.64,2.46,13.94,13.94,0,0,0,3.71-1.15,14.61,14.61,0,0,0,1-3.62A9.08,9.08,0,0,0,532,136Z" transform="translate(-3.32 -7.56)"/><path class="cls-1" d="M528.09,120.36a13.56,13.56,0,0,0,3.53-.16,8.62,8.62,0,0,0,1.4-3.09,11.75,11.75,0,0,0-2.14-3,13.3,13.3,0,0,0-3.5.15,8.33,8.33,0,0,0-1.42,3.09A13,13,0,0,0,528.09,120.36Z" transform="translate(-3.32 -7.56)"/><path class="cls-1" d="M524.79,112.57a7.67,7.67,0,0,0,1.91-1.33,8.5,8.5,0,0,0-.07-2.25,5.51,5.51,0,0,0-2-.91,7.65,7.65,0,0,0-1.9,1.34,8.8,8.8,0,0,0,.07,2.23A5.32,5.32,0,0,0,524.79,112.57Z" transform="translate(-3.32 -7.56)"/><path class="cls-1" d="M534.28,105.07a5,5,0,0,0,.85-1.88,7.36,7.36,0,0,0-1.29-1.8,8.46,8.46,0,0,0-2.13.1,4.77,4.77,0,0,0-.86,1.87,7.62,7.62,0,0,0,1.29,1.81A8.12,8.12,0,0,0,534.28,105.07Z" transform="translate(-3.32 -7.56)"/><path class="cls-1" d="M346.2,100.26a3.19,3.19,0,0,0,.47-.64,2.23,2.23,0,0,0-.28-.7,2.85,2.85,0,0,0-.77,0,2.41,2.41,0,0,0-.47.64,2.14,2.14,0,0,0,.28.69A2.46,2.46,0,0,0,346.2,100.26Z" transform="translate(-3.32 -7.56)"/><path class="cls-1" d="M360.11,121.55a3.69,3.69,0,0,0-.69.93,3.06,3.06,0,0,0,.41,1,3.67,3.67,0,0,0,1.1.08,4.61,4.61,0,0,0,.68-.93,3.43,3.43,0,0,0-.4-1A4.07,4.07,0,0,0,360.11,121.55Z" transform="translate(-3.32 -7.56)"/><path class="cls-1" d="M341.75,134.45a9.89,9.89,0,0,0,2.46-1.58,6.85,6.85,0,0,0-.14-2.72,10.78,10.78,0,0,0-2.58-1.15,9.71,9.71,0,0,0-2.46,1.6,6.79,6.79,0,0,0,.15,2.7A10.72,10.72,0,0,0,341.75,134.45Z" transform="translate(-3.32 -7.56)"/><path class="cls-1" d="M346.58,113.28a14,14,0,0,0,3.8-1.88,9.72,9.72,0,0,0,.26-4,16.14,16.14,0,0,0-3.55-2.09,14.92,14.92,0,0,0-3.81,1.9,9.64,9.64,0,0,0-.23,3.94A15.38,15.38,0,0,0,346.58,113.28Z" transform="translate(-3.32 -7.56)"/><path class="cls-1" d="M351.06,100.08a3.46,3.46,0,0,0-.75,1.19,5.6,5.6,0,0,0,.75,1.25,4.68,4.68,0,0,0,1.5.07,3.43,3.43,0,0,0,.76-1.19,5.87,5.87,0,0,0-.74-1.26A5.15,5.15,0,0,0,351.06,100.08Z" transform="translate(-3.32 -7.56)"/><path class="cls-1" d="M362,114.2a3.58,3.58,0,0,0,.76-1.19,5.91,5.91,0,0,0-.75-1.26,5.13,5.13,0,0,0-1.52-.06,3.46,3.46,0,0,0-.75,1.19,5.84,5.84,0,0,0,.75,1.25A5,5,0,0,0,362,114.2Z" transform="translate(-3.32 -7.56)"/><path class="cls-1" d="M244.29,88a5,5,0,0,0,1.29-.78,3.55,3.55,0,0,0,0-1.41,6,6,0,0,0-1.32-.64,5.09,5.09,0,0,0-1.29.79,3.38,3.38,0,0,0,0,1.41A5.45,5.45,0,0,0,244.29,88Z" transform="translate(-3.32 -7.56)"/><path class="cls-1" d="M734.57,98.34a3.48,3.48,0,0,0,.76-1.18,5.42,5.42,0,0,0-.74-1.26,5.15,5.15,0,0,0-1.52-.07,3.66,3.66,0,0,0-.75,1.19,6,6,0,0,0,.74,1.26A5.07,5.07,0,0,0,734.57,98.34Z" transform="translate(-3.32 -7.56)"/><path class="cls-1" d="M755.55,84.41a5.15,5.15,0,0,0-1.52-.06,3.51,3.51,0,0,0-.75,1.18,5.67,5.67,0,0,0,.75,1.26,5,5,0,0,0,1.5.07,3.43,3.43,0,0,0,.76-1.19A5.64,5.64,0,0,0,755.55,84.41Z" transform="translate(-3.32 -7.56)"/><path class="cls-1" d="M354.9,87.38a7.68,7.68,0,0,0,2.89-.85,12.66,12.66,0,0,0,.57-3.08A10.91,10.91,0,0,0,356,81.22a7.46,7.46,0,0,0-2.88.86,12.11,12.11,0,0,0-.56,3.06A10.41,10.41,0,0,0,354.9,87.38Z" transform="translate(-3.32 -7.56)"/><path class="cls-1" d="M363.18,84.5a11.18,11.18,0,0,0,2.32-1.42,9.82,9.82,0,0,0,.09-2.82,6.52,6.52,0,0,0-2.23-1.37A10.64,10.64,0,0,0,361,80.3a9.4,9.4,0,0,0-.09,2.81A6.66,6.66,0,0,0,363.18,84.5Z" transform="translate(-3.32 -7.56)"/><path class="cls-1" d="M365.1,75.57a7.19,7.19,0,0,0,1.6-1,6.34,6.34,0,0,0,.06-1.95,4.56,4.56,0,0,0-1.53-.94,7.58,7.58,0,0,0-1.6,1,6.27,6.27,0,0,0-.06,1.94A4.46,4.46,0,0,0,365.1,75.57Z" transform="translate(-3.32 -7.56)"/><path class="cls-1" d="M350.33,94.34a8.31,8.31,0,0,0,1.16-1.79,7.61,7.61,0,0,0-.91-2,5.18,5.18,0,0,0-2-.21,8.78,8.78,0,0,0-1.15,1.79,7.06,7.06,0,0,0,.9,2A5,5,0,0,0,350.33,94.34Z" transform="translate(-3.32 -7.56)"/><path class="cls-1" d="M376.06,62a4.8,4.8,0,0,0,1.3-.77,3.54,3.54,0,0,0,0-1.41,6.11,6.11,0,0,0-1.31-.64,4.94,4.94,0,0,0-1.3.78,3.33,3.33,0,0,0,0,1.4A5.24,5.24,0,0,0,376.06,62Z" transform="translate(-3.32 -7.56)"/><path class="cls-1" d="M370,69.64a5.48,5.48,0,0,0,2-.58,9,9,0,0,0,.41-2.15,7.93,7.93,0,0,0-1.64-1.58,5.17,5.17,0,0,0-2,.6,7.94,7.94,0,0,0-.41,2.14A7.61,7.61,0,0,0,370,69.64Z" transform="translate(-3.32 -7.56)"/><path class="cls-1" d="M742.69,57.07A13.85,13.85,0,0,0,742.2,53a14.55,14.55,0,0,0-3.84-1.26A12.8,12.8,0,0,0,735,54.47a11.08,11.08,0,0,0,.51,4.09,10.46,10.46,0,0,0,3.86,1.28A13.83,13.83,0,0,0,742.69,57.07Z" transform="translate(-3.32 -7.56)"/><path class="cls-1" d="M736.16,79a7.57,7.57,0,0,0,1.77-1.48,7.64,7.64,0,0,0-.26-2.19,8.11,8.11,0,0,0-2.07-.68,7.08,7.08,0,0,0-1.79,1.47,5.91,5.91,0,0,0,.27,2.2A5.47,5.47,0,0,0,736.16,79Z" transform="translate(-3.32 -7.56)"/><path class="cls-1" d="M738.81,66a4.06,4.06,0,0,0,.72-1.4,5.39,5.39,0,0,0-.86-1.43,5.6,5.6,0,0,0-1.58-.06,5.55,5.55,0,0,0-.72,1.39,5.11,5.11,0,0,0,.84,1.45A4.16,4.16,0,0,0,738.81,66Z" transform="translate(-3.32 -7.56)"/><path class="cls-1" d="M754.66,59.82a4.41,4.41,0,0,0,1.09-1.17,4.14,4.14,0,0,0-.58-1.46,5.09,5.09,0,0,0-1.64-.3,5.2,5.2,0,0,0-1.09,1.16A5.57,5.57,0,0,0,753,59.5,4.92,4.92,0,0,0,754.66,59.82Z" transform="translate(-3.32 -7.56)"/><path class="cls-1" d="M284.2,9a3.19,3.19,0,0,0,.47-.64,2.18,2.18,0,0,0-.28-.69,2.85,2.85,0,0,0-.77,0,2.64,2.64,0,0,0-.47.65,2.09,2.09,0,0,0,.28.68A2.46,2.46,0,0,0,284.2,9Z" transform="translate(-3.32 -7.56)"/><path class="cls-1" d="M271.47,26.51a7.29,7.29,0,0,0,2-1.16,5.28,5.28,0,0,0,0-2.13,8.72,8.72,0,0,0-2-1,7.81,7.81,0,0,0-2,1.18,5.26,5.26,0,0,0,.05,2.12A8.35,8.35,0,0,0,271.47,26.51Z" transform="translate(-3.32 -7.56)"/><path class="cls-1" d="M255.33,73.47a9.66,9.66,0,0,0,3.82-.23,15.77,15.77,0,0,0,1.57-3.64,13.62,13.62,0,0,0-2.27-3.43,9.23,9.23,0,0,0-3.8.24A14.51,14.51,0,0,0,253.08,70,13.27,13.27,0,0,0,255.33,73.47Z" transform="translate(-3.32 -7.56)"/><path class="cls-1" d="M246.61,63.3a7.05,7.05,0,0,0,0,2.85,11.07,11.07,0,0,0,2.66,1.29A10.43,10.43,0,0,0,252,65.88a7.27,7.27,0,0,0,0-2.86,11.57,11.57,0,0,0-2.67-1.3A10.45,10.45,0,0,0,246.61,63.3Z" transform="translate(-3.32 -7.56)"/><path class="cls-1" d="M259.79,80.5a24.1,24.1,0,0,0-4.61,4.34c-.19.61.66,5.9,1.15,6.53.38.47,4.85,2.36,5.77,2.16a25.13,25.13,0,0,0,4.62-4.35c.19-.61-.71-6-1.18-6.55S260.76,80.3,259.79,80.5Z" transform="translate(-3.32 -7.56)"/><path class="cls-1" d="M251.91,102.16a16.48,16.48,0,0,0-.53-5.08c-.27-.39-3.64-2-4.36-1.94a19.46,19.46,0,0,0-3.84,3.13,17.85,17.85,0,0,0,.56,5.11c.27.38,3.59,2,4.35,1.9A18.46,18.46,0,0,0,251.91,102.16Z" transform="translate(-3.32 -7.56)"/><path class="cls-1" d="M244,110.32a4.72,4.72,0,0,0,0,1.91,8,8,0,0,0,1.77.9,6.54,6.54,0,0,0,1.78-1,4.71,4.71,0,0,0,0-1.91,7.45,7.45,0,0,0-1.78-.9A6.77,6.77,0,0,0,244,110.32Z" transform="translate(-3.32 -7.56)"/><path class="cls-1" d="M249.05,86.7A7.62,7.62,0,0,0,247,89a12.25,12.25,0,0,0,1.16,3,11.41,11.41,0,0,0,3.29.71,8,8,0,0,0,2.11-2.32,12.52,12.52,0,0,0-1.17-3A11.37,11.37,0,0,0,249.05,86.7Z" transform="translate(-3.32 -7.56)"/><path class="cls-1" d="M252.5,115.57a12.38,12.38,0,0,0,3.14-1.07,11.58,11.58,0,0,0,.86-3.32,8.23,8.23,0,0,0-2.3-2.25,13,13,0,0,0-3.14,1.08,11.72,11.72,0,0,0-.85,3.34A7.85,7.85,0,0,0,252.5,115.57Z" transform="translate(-3.32 -7.56)"/><path class="cls-1" d="M246.72,81.52c.45.13,4.08-.7,4.56-1.25a19.11,19.11,0,0,0,1-4.81,17.28,17.28,0,0,0-3.63-3.56c-.44-.13-4,.7-4.53,1.27a17.89,17.89,0,0,0-1,4.79A16.44,16.44,0,0,0,246.72,81.52Z" transform="translate(-3.32 -7.56)"/><path class="cls-1" d="M249.93,54.12a5.64,5.64,0,0,0,.47,2.27,8.88,8.88,0,0,0,2.33.64,8.31,8.31,0,0,0,1.87-1.65,5.81,5.81,0,0,0-.46-2.29,9.68,9.68,0,0,0-2.34-.64A8.43,8.43,0,0,0,249.93,54.12Z" transform="translate(-3.32 -7.56)"/><path class="cls-1" d="M257.14,40.61a9.44,9.44,0,0,0,.07,3.77,15,15,0,0,0,3.51,1.71A13.39,13.39,0,0,0,264.2,44a9.6,9.6,0,0,0-.05-3.77,15.58,15.58,0,0,0-3.53-1.72A14,14,0,0,0,257.14,40.61Z" transform="translate(-3.32 -7.56)"/><path class="cls-1" d="M256.91,37.4a4.43,4.43,0,0,0,1.14-.67,3.41,3.41,0,0,0,0-1.23,5.1,5.1,0,0,0-1.15-.56,4.72,4.72,0,0,0-1.13.68,3,3,0,0,0,0,1.22A4.47,4.47,0,0,0,256.91,37.4Z" transform="translate(-3.32 -7.56)"/><path class="cls-1" d="M269.8,34.49a4.66,4.66,0,0,0,.77-1,4.26,4.26,0,0,0-.43-1.24,3.09,3.09,0,0,0-1.2-.23,4.41,4.41,0,0,0-.78,1,4.46,4.46,0,0,0,.43,1.24A2.9,2.9,0,0,0,269.8,34.49Z" transform="translate(-3.32 -7.56)"/><path class="cls-1" d="M249.71,48.82a4.65,4.65,0,0,0,.78-1,4.55,4.55,0,0,0-.44-1.25,3.09,3.09,0,0,0-1.2-.23,5.35,5.35,0,0,0-.78,1,4.44,4.44,0,0,0,.44,1.25A3.06,3.06,0,0,0,249.71,48.82Z" transform="translate(-3.32 -7.56)"/><path class="cls-1" d="M265.19,93.77a4.91,4.91,0,0,0-.77,1,4.41,4.41,0,0,0,.43,1.25,3.06,3.06,0,0,0,1.2.22,4.65,4.65,0,0,0,.78-1A4.52,4.52,0,0,0,266.4,94,3.11,3.11,0,0,0,265.19,93.77Z" transform="translate(-3.32 -7.56)"/><path class="cls-1" d="M263.28,33.25a9.33,9.33,0,0,0,2.43-1.44,6.55,6.55,0,0,0,0-2.64A10.54,10.54,0,0,0,263.21,28a9.54,9.54,0,0,0-2.42,1.45,6.45,6.45,0,0,0,0,2.62A10.5,10.5,0,0,0,263.28,33.25Z" transform="translate(-3.32 -7.56)"/><path class="cls-1" d="M279.25,14.5a5.54,5.54,0,0,0,1.41-.84,4,4,0,0,0,0-1.53,6.27,6.27,0,0,0-1.43-.69,5.42,5.42,0,0,0-1.42.84,4,4,0,0,0,0,1.53A6.08,6.08,0,0,0,279.25,14.5Z" transform="translate(-3.32 -7.56)"/><path class="cls-1" d="M273.08,18.68a5.07,5.07,0,0,0,1.3-.77,3.54,3.54,0,0,0,0-1.41,5.3,5.3,0,0,0-1.31-.64,5.37,5.37,0,0,0-1.3.77,3.37,3.37,0,0,0,0,1.41A6,6,0,0,0,273.08,18.68Z" transform="translate(-3.32 -7.56)"/><path class="cls-1" d="M265.2,54.47a12.8,12.8,0,0,0-3.34-2.73A14.55,14.55,0,0,0,258,53a13.85,13.85,0,0,0-.49,4.07,13.83,13.83,0,0,0,3.3,2.77,10.46,10.46,0,0,0,3.86-1.28A11.08,11.08,0,0,0,265.2,54.47Z" transform="translate(-3.32 -7.56)"/><path class="cls-1" d="M262.55,75.33a7.64,7.64,0,0,0-.26,2.19A7.57,7.57,0,0,0,264.06,79a5.47,5.47,0,0,0,2.08-.68,5.91,5.91,0,0,0,.27-2.2,6.91,6.91,0,0,0-1.79-1.47A8.25,8.25,0,0,0,262.55,75.33Z" transform="translate(-3.32 -7.56)"/><path class="cls-1" d="M263,66a5.11,5.11,0,0,0,.84-1.45,5.55,5.55,0,0,0-.72-1.39,5.6,5.6,0,0,0-1.58.06,5.39,5.39,0,0,0-.86,1.43,4.06,4.06,0,0,0,.72,1.4A4.15,4.15,0,0,0,263,66Z" transform="translate(-3.32 -7.56)"/><path class="cls-1" d="M245.56,59.82a5,5,0,0,0,1.65-.32,5.9,5.9,0,0,0,.57-1.45,5.2,5.2,0,0,0-1.09-1.16,5.09,5.09,0,0,0-1.64.3,4.14,4.14,0,0,0-.58,1.46A4.41,4.41,0,0,0,245.56,59.82Z" transform="translate(-3.32 -7.56)"/><path class="cls-1" d="M389.26,387.37c-3.52.18-6.73-2.48-9.55-4.09-2,0-3.7-.17-4.78-1-2.45,1.76-5.35,1.4-8.18,3.07a33.91,33.91,0,0,0-6.14,11.25c1,3.25.71,8.1-.68,9.55-3.86-.74-7.49.15-11.26.34-3.26.16-6.92-.8-10.23-.34-.93.13-1.51.63-2.39.68-1.87.09-3.9-.5-5.8-.34-3.09.26-6.25,1.59-9.21,1.37-.56,0-1.43-.73-2-.69,0-4.9.73-10.84-.34-17.39-1-.88-2.31-1.33-2.73-2.73-3.81.28-5.38-4.63-9.55-5.12a3.09,3.09,0,0,0-2.73-2c.14-.83-.62-.74-.34-1.71a6.5,6.5,0,0,1-2.05-1.36c-.77-2.19-2.93-3-3.75-5.12-2.62-.79-4.17-2.65-6.48-3.75.71-1.82.29-4,.68-6.48.56-3.5,2-6.87,2.05-10.57a37.19,37.19,0,0,0,0-4.09c-.22-2.23-1.42-4.17-1-6.14s3.15-2.92,2.38-4.78c.65.08.76-.39,1.37-.34a12.63,12.63,0,0,1,2.73-5.8c2.37,1.17,3.74.22,5.79-1,2.3-.35,3,.89,4.78,1a5.7,5.7,0,0,0,3.75,3.07,12,12,0,0,0,2.73,3.41c1.86,1.85,3.76,3.53,4.77,5.8.13.28-.34.68-.34.68.06.41.63.17.69.34a10.51,10.51,0,0,0,1.36,3.41,10.17,10.17,0,0,0,1,8.19c2.49.48,3,2.61,5.46,3.75,1.83,3.85,5.79,5.57,7.16,9.89-.13,1.46-.79,2.39-1,3.75a4.22,4.22,0,0,0,4.09,2.05c.08-.27.29-.39.68-.34.56-1.66,1.29-2.88,1.37-4.43.42-8.14-5.76-11-8.19-16-1,.25-1.24-.35-2-.34-.63-2.29-2.07-3.95-2-6.82,0-6.26-.39-12.19-5.12-14.66-.79-3.6-3.93-4.43-6.14-6.48-1.38-1.29-2.34-2.93-3.75-4.1s-3.43-1.86-4.77-3.07c-.59-.53-1-2-2.05-3.07s-2-1.54-2.73-2.39c-.81-1-.48-1.88-1-3.06-.41-.92-1.4-1.59-1.71-2.39-.14-.37.22-.78,0-1.36-.69-1.88-.48-5.3-1.36-6.83.74-3.16.42-6.12,1-9.55,1-1.22,1.74-3,2.39-3.75,2.38-2.74,3-7.41,4.44-10.57.53-1.2,1.57-2.19,2-3.41.57-1.45.39-3.16,1-4.43.38-.78,1.38-1.31,1.7-2.05,1.4-3.27,1.67-8,2.39-11.6a53.73,53.73,0,0,0,.14-11.49c2-3.15.86-7.45.75-11.24s.44-7.66.42-11.93c0-9.15-.88-17.63.16-25.57-1.29-8,.66-15.3-.88-22.19,1.29-4.2.21-9.47.44-13.63.08-1.58.8-3.3.71-4.76-.07-1-.71-1.85-.67-2.74.17-4.05,2.36-6.81,3.82-10.17a1.68,1.68,0,0,1,1,.36c.42-3.46,4.3-3.38,4.14-7.43-3.55-3.35-6.22,1.37-8.55,3.26a2.84,2.84,0,0,1-2,.31c-.49.63-.77,1.49-2.05,1.32-.3,1.64-1.93,2.78-3.09,3.7-4.7,3.74-11,6.29-14.4,10.66-2.42.28-3.12,2.3-5.48,2.64-.58.2-.56,1-1,1.34a40.76,40.76,0,0,0-11.3,7.31c-3.61.12-6.27,5.56-10.95,4.58,0-9.08.05-19,.18-27.28.15-9.35-.18-8.24-.07-18.12,0-.46.2-11.63.27-11.89,0,0-.15-4.81.2-5.87a1.17,1.17,0,0,0-.18-1.1,8.18,8.18,0,0,0-.06-3.07c-.28-.58-5.48-3.77-6-3.8-.71,0-6.24,2.43-6.72,3.1s-1.12,5.84-.62,6.83a23.65,23.65,0,0,0,4.47,3c.33,4.07,0,5.46-.2,6-.36.95-3.58,3.58-4.15,3.44a5.83,5.83,0,0,1-1.87-1.06,14.12,14.12,0,0,0-3.13-2.24,13.67,13.67,0,0,0-3.43,1.92,6,6,0,0,0-.26,1.51c-.65.39-1.5.81-1,1.76.12,3.55.59,7.23.68,8.88.17,3.19,0,7.91,0,9.25-.19,10.79-.15,23.31-.22,33.42,0,2.78.63,5.17.63,7.51,0,4.12-.34,9-.43,13.64-.1,5.4-2.67,9.36-2.79,10.69-.3,3.19,5.05,4.05,7.81,5.59.24.13.13.88.33,1s1.15.23,1.36.36c1.51.94,3,1.75,4.42,2.46a44.16,44.16,0,0,1,5.1,3.16c1.35.89,9.48,4.34,10.22,1.89-.52-2-2.59-2.44-3.73-3.82-1.3-12.49-.13-22.15-.79-35.64,2.89-3.28,6.42-6.35,10.28-7.67-.39-.07-.36-.54-.33-1,.9.65,1.57-.27,2.39-.64,3.94-1.77,6.87-4.1,10.61-5.61.1.92,1.43.64,1.7,1.39,1.72,10.9.53,23.11.8,34.12.09,3.76.59,8,.61,12,0,4.87-1.06,10.41.24,15a66.65,66.65,0,0,0-.09,14.66c.43,4.44.56,9.81.57,14.66a7.7,7.7,0,0,0,0,1.33,0,0,0,0,0,0,0,11.75,11.75,0,0,1-1,4.78c1.07,1.32.34,2.72.32,3.75,0,.86.66,1.86.66,2.74a52.7,52.7,0,0,1-.54,5.78c-1.33,1.85-1.54,5-1.47,7.13-1.16-.25-.56,1.26-1.36,1.37.49,2.26-2,4-2.05,6.82-2.21,2.1-2.86,5.78-5.11,7.84.57,1.89-1.84,2-.69,3.41-1.07-.39-.83.54-1.36.69-1.8,7.43.54,12.57,4.77,16-.37,1.86.82,2.15,1,3.41-1.46,4.11-1,10.13-4.44,12.29.69,2.59-2,3.48-2.73,5.45-1,2.68-.19,6.37.35,8.87,1.25,5.87-1.25,14.1-2.39,20.8,1.25,1.93,2.44,3.92,3.75,5.8,10.71,7.14,21.51,14.19,31,22.51.67,4.5-1.94,5.64-1,8.87-2.8,1.51-.32,4.66-.68,7.16-.05.37-.72.39-.68.68a23,23,0,0,0,.68,2.39c1.26,4.11,2.92,8.22,4.78,10.57,1.69,2.14,2.69,3.5,4.43,4.44a6.12,6.12,0,0,0,2.39-3.75c-1.45-2.81-3.9-4.68-3.41-8.53a28.91,28.91,0,0,0,5.45-2.73c3.94,0,10.24,0,14-.68,6-1.1,13.5.38,19.44-1,1.69,2,6.06,3.76,9.21,1.37,3.76-8.09,2.13-16.11,6.48-23.54,2.79-.91,4.36-2.1,6.82-2a23.9,23.9,0,0,1,6.48,1.71c.66.34,1.45.17,1.7.33,1,.63,5.48,1.39,5.8.69v-2.05C393.86,389.36,389.77,388.29,389.26,387.37ZM303,316.43h-1.71c.28-1.18-.5-1.31-.34-2.39C301.51,314.93,303,315,303,316.43Zm-8.22-100.87c1.06.45.17.7.67,1.71C294.67,217.21,294.69,216.4,294.75,215.56Zm0,4.09c.14-.65.43.22.34.69C294.93,221,294.63,220.11,294.72,219.65Zm-3,115.19c.85.06.1,1.16,0,1.37C290.86,336.16,291.61,335.06,291.71,334.84Zm-2.38,15c0-2.74.55,3.72,0,0Zm24.89,42.29c.13-.65.44.22.35.69C314.43,393.48,314.13,392.61,314.22,392.14Zm.35,21.49h1.36A.73.73,0,1,1,314.57,413.63Z" transform="translate(-3.32 -7.56)"/><path class="cls-1" d="M693.61,413c-.36-2.5,2.12-5.65-.68-7.16.92-3.23-1.7-4.37-1-8.87,9.53-8.32,20.33-15.37,31-22.51,1.31-1.88,2.5-3.87,3.75-5.8-1.14-6.7-3.63-14.93-2.38-20.8.53-2.5,1.37-6.19.34-8.87-.76-2-3.41-2.86-2.73-5.45-3.42-2.16-3-8.18-4.44-12.29.21-1.26,1.4-1.55,1-3.41,4.24-3.45,6.58-8.59,4.77-16-.53-.15-.29-1.08-1.36-.69,1.15-1.4-1.26-1.52-.68-3.41-2.26-2.06-2.91-5.74-5.12-7.84-.08-2.79-2.54-4.56-2-6.82-.8-.11-.2-1.62-1.36-1.37.07-2.13-.13-5.25-1.45-7.1.17-3.53.81-7.22.76-10.9,0-.8-.61-1.62-.66-2.4-.11-1.66,0-3.48.06-5.12.18-5.14.82-10.39.87-15.67.08-8.13-.76-17,1-24.52-2.88-4.3-6.67,1.21-9.24,2.51a2.16,2.16,0,0,0-1.71,0c-6.12,4.39-13.25,9.49-19.93,12.17a.34.34,0,0,1,0,.68c-6.23,2.88-10.86,7.41-16.84,10.53.55-3.24-.85-7.33.47-11.58a1.8,1.8,0,0,1-1-1c1.16-11.55-.55-21.71.74-33.41-1-2.18-.37-4-.27-6.14.37-8.29-.59-18.37-.06-24.9.06-.69.72-1.16.71-1.69s-.58-.58-.67-1.38c-.15-1.42,1-3.09,1.42-4.4,7.32-3.36,14.56-8.64,22-10.76.34,11.13-.44,26.16.59,36.85-1.56,1.48-.38,4.66-.76,6.8,0,.08-.61.43-.69.67-.64,2-.36,2.2-1.41,3.72-1.18,1.71-4.42,3.44-4.49,5a2.37,2.37,0,0,0,1.67,2.43c5.85-4,11.78-7.83,16.53-12.93,1.41.43,1.34-.68,2.4-.63,2.7-3.64,7.54-5.07,10-9,0-.21.06-.41.35-.34.06-8.66-1.34-19.4.33-28.64a11.64,11.64,0,0,1-1-4.46c0-4.71.71-11.35.87-16.35,0-1-.44-2.21-.31-3.07.33-2,2.59-3.35,1.43-4.75-4.15,1.83-7.72,4.78-11,6.92a174.51,174.51,0,0,1-19.23,11.15c-2.64,3-6.76,4.51-10,6.94-1.55,0-2.36.78-3.77.94-.81,1.24-5.06,4.27-6.11,4.11-1,.31-3.91,4.74-10.66,4-6.28-2.73-7.82-7.11-9.24-5.93-2.6,1.19-3.55-2.84-4.5-2.36s-.94,8.28-.47,10.18a3.55,3.55,0,0,1-.9,3.22c.06,1.12.63,2,.65,3.09.38,34.45-1.35,69-1.19,100.93,3.07,0,5.55-2.37,7.89-3.92,7.41-4.86,14.45-9.34,21.32-14.52,5.87-2.15,10.26-7.13,17.17-9.16,1.64.55,1.95,2.39,3.37,3.15a7,7,0,0,1,.48,2.78v0a54.25,54.25,0,0,0,.29,9.94c.72,3.61,1,8.33,2.38,11.6.32.74,1.32,1.27,1.71,2.05.63,1.27.46,3,1,4.43.47,1.22,1.51,2.21,2,3.41,1.4,3.16,2.05,7.83,4.43,10.57.65.75,1.38,2.53,2.39,3.75.6,3.43.28,6.39,1,9.55-.88,1.53-.67,4.95-1.36,6.83-.22.58.14,1,0,1.36-.31.8-1.29,1.47-1.71,2.39-.53,1.18-.21,2-1,3.06-.68.85-1.81,1.39-2.73,2.39s-1.46,2.54-2,3.07c-1.34,1.21-3.29,1.84-4.77,3.07s-2.37,2.81-3.75,4.1c-2.21,2.05-5.35,2.88-6.14,6.48-4.73,2.47-5.17,8.4-5.12,14.66,0,2.87-1.42,4.53-2.05,6.82-.8,0-1,.59-2,.34-2.43,5-8.61,7.9-8.19,16,.08,1.55.81,2.77,1.37,4.43.39-.05.6.07.68.34a4.22,4.22,0,0,0,4.09-2.05c-.22-1.36-.89-2.29-1-3.75,1.37-4.32,5.33-6,7.16-9.89,2.5-1.14,3-3.27,5.46-3.75a10.17,10.17,0,0,0,1-8.19,10.51,10.51,0,0,0,1.36-3.41c.07-.17.63.07.69-.34,0,0-.47-.4-.34-.68,1-2.27,2.92-3.95,4.77-5.8a12,12,0,0,0,2.73-3.41,5.7,5.7,0,0,0,3.75-3.07c1.79-.14,2.49-1.38,4.78-1,2,1.25,3.42,2.2,5.79,1a12.63,12.63,0,0,1,2.73,5.8c.61,0,.72.42,1.37.34-.76,1.86,2,2.74,2.38,4.78s-.8,3.91-1,6.14a37.19,37.19,0,0,0,0,4.09c.1,3.7,1.49,7.07,2,10.57.39,2.44,0,4.66.68,6.48-2.31,1.1-3.86,3-6.48,3.75-.82,2.14-3,2.93-3.75,5.12a6.5,6.5,0,0,1-2.05,1.36c.28,1-.48.88-.34,1.71a3.1,3.1,0,0,0-2.73,2c-4.17.49-5.74,5.4-9.55,5.12-.42,1.4-1.78,1.85-2.72,2.73-1.08,6.55-.32,12.49-.35,17.39-.6,0-1.48.64-2,.69-3,.22-6.12-1.11-9.21-1.37-1.89-.16-3.93.43-5.8.34-.88-.05-1.46-.55-2.39-.68-3.31-.46-7,.5-10.23.34-3.77-.19-7.39-1.08-11.25-.34-1.4-1.45-1.72-6.3-.68-9.55a34.27,34.27,0,0,0-6.14-11.25c-2.84-1.67-5.74-1.31-8.19-3.07-1.08.85-2.81,1.05-4.78,1-2.82,1.61-6,4.27-9.54,4.09-.52.92-4.61,2-4.78,3.41v2.05c.32.7,4.84-.06,5.8-.69.25-.16,1,0,1.7-.33A23.9,23.9,0,0,1,624,390.1c2.46-.06,4,1.13,6.82,2,4.35,7.43,2.72,15.45,6.49,23.54,3.14,2.39,7.51.67,9.21-1.37,5.93,1.41,13.43-.07,19.44,1,3.74.69,10,.71,14,.68a29,29,0,0,0,5.46,2.73c.48,3.85-2,5.72-3.42,8.53A6.12,6.12,0,0,0,684.4,431c1.75-.94,2.75-2.3,4.43-4.44,1.87-2.35,3.53-6.46,4.78-10.57a23,23,0,0,0,.68-2.39C694.33,413.34,693.66,413.32,693.61,413Zm21.15-63.1c-.56,3.72,0-2.74,0,0Zm-5.35-212.46c.4-1.09.37.92.32,1.37C709.32,139.86,709.35,137.84,709.41,137.39Zm-4.93,12.85c.23-1,.38.79.33,1C704.64,152,704.16,151.53,704.48,150.24Zm-4.51,35c1,.21-.53.52-.35,1C698.5,185.92,700,185.62,700,185.27Zm-7.84-29.17c1.12.22-.45,2.19.31,2.05C691.67,159.07,691.66,156.66,692.13,156.1Zm-50.76,81c-.77-.28-.11-1.92-.31-2.74C641.91,234.75,641.83,236.07,641.37,237.14ZM646,166c-.4-.06-.28-.63-.33-1,.58-.11.64.28.68.7C646,165.56,646,165.75,646,166Zm56.86,150.47h-1.71c0-1.45,1.46-1.5,2-2.39C703.33,315.12,702.54,315.25,702.82,316.43ZM704,223.56h.68c0,.23,0,.46,0,.69l-.68,0C704,224,704,223.78,704,223.56Zm8.41,112.65c-.1-.21-.85-1.31,0-1.37C712.47,335.06,713.22,336.16,712.37,336.21Zm-24.22,77.42h1.37A.73.73,0,1,1,688.15,413.63Zm1.37-20.8c-.1-.47.21-1.34.34-.69C690,392.61,689.65,393.48,689.52,392.83Z" transform="translate(-3.32 -7.56)"/><path class="cls-1" d="M492.53,359.24c-1.58-.75-4.2-.56-6.48-1.36-2.88,2.81-7.23.86-10.58,2.72-6.54-3.14-12.77,4-18.07,4.1-4,4.66-6.7,10.57-12.28,13.64-.65,3.21-4.77,3-5.46,6.14-2.41-.31-4.06-1.65-6.82-.69-2.07-1.46-3-3-6.48-2-2.16-1.41-1.66-3.25-2.39-5.12-.18-.48-.17-1.31-.34-1.7-.33-.75-1.38-1.59-1.7-2.39-.53-1.3-.59-2.76-1-4.09-.85,0-1.06.65-1.36-.34.8-3.24-2-5.73-2.73-8.53a7.16,7.16,0,0,1-4.43-3.41c1.65-1.65,4.57-2,6.14-3.75.29.51.51-.1,1.36.34,0-1.61,1.74-1,2.73-1.37,1.65-.63,3.4-2.3,4.77-2.72,3.1-1,4.78-2.51,7.85-2.73,1.25-3.8,2.91-8.53,1.7-11.94-1.15-1.35-3.64-1.36-5.8-1.7-.26-1-1.61-.89-1.36-2.39-3.83-1.19-6.76-5-11.25-4.44-.38-1.22-1.67-1.52-2.39-2.38H413.4c-1.28,1.37-3.48,3.13-3.41,4.77-2.89,1.77-6,3.33-6.48,7.51,2.4,2.48,4.09,8,8.87,5.11.73-2.39-.72-4.45-2.05-5.8.88-2.42,2.77-3.82,4.78-5.12,3.09,1.69,6.47,3.08,9.2,5.12.07-.5.83-.31,1.37-.34.77,1.39,2.24,2.08,3.07,3.41,0,2.33-.28,3.08-.34,4.78a46.59,46.59,0,0,1-12.62,3.07c-1.42,1.58-3.27,1.9-4.78,2.72-2,1.08-4.68.85-8.18,2.05-3.42-1.71-6.44,1.24-9.55-1-5.6.47-13.21-2-18.08,1.36-.58-.92-1.71.66-2.05-.68,0,1-1.42.62-2.38.68-1.52-1.54-3-3.1-3.41-5.8-1.44-.15-1.52-1.66-2.39-2.38,0-2.62-2.3-2.93-3.07-4.78a2.22,2.22,0,0,1-1.71-.34,21.94,21.94,0,0,0-4.09-5.11c-.17-3.56-3.92-5.06-3.75-7.85a1.86,1.86,0,0,1-1.36-1.36c.67-.92.2-3,.34-4.44,3.59-3.91,4.53-10.47,7.16-15.35,1.37-.67,2-2.13,2.39-3.74,1.77-7.13,4.44-8.52,8-7.81s5.15,8.17,5.51,6.4,1.42-6-1.07-9.14-8.7-8.35-8.72-8.36c-1.48-2.35-2.79-4.71-2.86-7.69,0-.76.38-1.86.36-2.73,0-.64-.63-1.42-.67-2.05-.08-1.27.86-2.95.71-4.42-.05-.48-.67-1-.67-1.38,0-2.6,1-5.84-.29-7.51,1.34-3.56.19-29.52.4-33.71,0-.56-.95-.21-1-.7a1.83,1.83,0,0,0,1.37-1.34c-.47-2.79-.2-6.35-1-8.55.91.13.51-7.57.42-10.56,0-.62.08-1.93,0-2-.16-.27-.62.12-.68-.35a4.26,4.26,0,0,0,.68-.67c0-.52-.66-.3-.67-1,0-1.9.77-3.67,0-5.12a7.42,7.42,0,0,0,.7-3.06c-.85-1.92,0-3.44,0-5.79,0-.76-.61-1.68-.66-2.74-.18-3.22.57-6.82.41-10.57,3.27-1.78,7-5.47,12-6.61,2.17-2.65,5.32-2.34,7.53-4.65,2.27,0,3-1.54,4.79-2,1.05,3.3-.58,11,.93,14.34-1.07,1.08-.17,3.92.31,5.47a23.67,23.67,0,0,0-.74,8.51c.05.41.69.36.68.69-.07,1.65-1.49,3.44,0,5.12-.35,1.83-.94,4.49-.73,6.12,0,.17.7.71.68,1,0,.48-.71,1.19-.69,1.69,0,.9.69,1.85.66,2.74-.1,3.7-1.43,6.52-.05,8.53-1.81,9.53-.4,22-2.26,32.7-.25,1.46-.81,2.92-1.06,4.75-.63,4.62-2.94,8.16-3.83,12.22-1.79,2.27-6.65,6.38-3.13,9.83,5.8-3.67,9.7-9.29,15.1-13.38,1-3.59,4.39-5.49,6.53-8.41,1.48-2,2.2-5.18,3.46-7.78s3.16-4.83,4.14-7.09c.28-.64.07-1.67.36-2.38.51-1.28,1.47-2.45,2.07-3.72a18.22,18.22,0,0,1,2.07-4.06c-.17-2.89.35-5.14.39-7.49.05-2.9.95-6.09.74-9.2-.08-1.26-.62-2.51-.66-3.76-.05-1.92.43-3.84.38-5.79-.15-7-.53-14.31-.21-20.47.27-5.06-.63-8.35.42-12.61-.4-.06-1,0-1-.35a64.88,64.88,0,0,0,1.11-15c0-.73-.56-1-.67-1.72-.16-1,.65-2.31.71-3.4,0-.7-.66-1.3-.67-2.06,0-.28.59-1.06.69-1.69a31,31,0,0,0,.39-6.81,8.42,8.42,0,0,0-.33-2.74,9.12,9.12,0,0,0-4.43-.08,17.53,17.53,0,0,1-7.54,5.33c-.06.4.05,1-.35,1-4.21,2.32-7.72,5.36-12.33,7.28-1.67,2.25-5.79,3.58-6.85,5.34l-1,0c-.07,1.3-1.45,1.26-1.71,2.36,0-1.61-.44.75-1.71,0-4.12,3-9.26,6.32-14,7.6a2.63,2.63,0,0,1-.24-1.4c0-1.06.18-7.46-.35-7.81a6.55,6.55,0,0,1-.27-3,11.34,11.34,0,0,0,1-2.72,3.16,3.16,0,0,0-.48-.82c0-.05,0-.11-.07-.17-.36-.71.06-5,0-6.34-.12-2.49-.83-11.13-2.85-11.37a3.68,3.68,0,0,1-.43-3.63l0,0A2.94,2.94,0,0,0,358,120a13.89,13.89,0,0,0,1.47-2.43c.47-1.66-.48-2.61-1.66-4.5-1.06-1.7.15-3,1.27-4.29a12.33,12.33,0,0,0,1.6-2,1.26,1.26,0,0,0,0-.4,8.88,8.88,0,0,0,.24-3.51c-.24-3.08.47-4.26.94-6.16a4.41,4.41,0,0,0,.24-1.42,5.7,5.7,0,0,0,.72-1.57,10,10,0,0,0-2-3.56,16.27,16.27,0,0,0-4.25.22,14.55,14.55,0,0,0-2.21,3.81,10.09,10.09,0,0,0,2,3.54c.9,2.2-1.85,5.85-3.27,6.8s-2.13,1.66-.24,3.32-.71,6.15-2.6,7.57-4.74,0-6.63,1.19l-.14.1a16.42,16.42,0,0,0-3.53,1.94c-.28.4-.68,4.26-.3,5a4.93,4.93,0,0,0,1.19.89,18.78,18.78,0,0,0,4.67,3.94,5.68,5.68,0,0,1,1.57,1.66,1.27,1.27,0,0,0,0,.47c.31,1,2.13,4.18-1.15,5.42-1.21-.31-3.65,2.4-4.89,1.51s-2.84-1.07-3.2.35-1,9.57-1,9.57c.53,20.06.57,39.53,0,55.25-.11.67.45.68.67,1-1.31-.07-.32,1.58-.35,2-.33,5-.6,13.34-.46,18.4,0,.81.63,1.59.67,2.4.05,1.24-.66,26.75-.71,27.91a57.8,57.8,0,0,0,.63,8.19c-1,1.84-4.35.66-5.48,3,.19,0,.39.28,0,.35,2.11,2.25,5.3,3.45,8.23,4.9h0c11.12,6.48,12.34,15.72,12.34,15.72a33.7,33.7,0,0,1-3.41,15c.55,1.12-.08,1.3,0,2.73-1.85.42-1.35,3.2-3.07,3.75-1.87,6.4-4.1,11.7-9.55,15.35-1.15,3.28,1.91,5.3,3.07,8.18,2.75.49,4.5,3.35,6.82,4.78.37.23,1.33.05,1.71.34.76.58.93,1.64,1.7,2.39,1.12,1.08,2.59,1.65,3.41,2.73,1.45,1.9,2.88,5.45,4.09,7.16.93,1.31.62,2.24,1,3.75,1,3.58,2.89,7.29,3.75,11.26,1.73.77,2,3,4.77,2.72,1.68-1.85,3.05-4,4.78-5.79,3.45.15,4.55-2.05,6.82-3.07,2.4,1.73,4.49-.53,6.82-.69,3.17-.21,6.38,1.47,10.23.69,1.05,1.22,1.35,3.19,2.73,4.09,5.21-1.25,6.6,3.71,11.6,3.75,1.11,1.83,3.41,2.6,4.43,4.77.25.52,0,1.67.34,2.73,1,3.09,2.37,6.58,1.37,9.89,1.09.62.64,2.77,1.36,3.76,7.45,1,11.09,4,17.74,5.8,0,.87.62,1.19,1,1.7,3.91-.31,9.76,2.6,15,3.41,3.68.56,8.79-1.32,8.52-2.73-1.84-1.63-4.92-.89-7.5-1.36a8,8,0,0,1-6.48-5.12c.81-1.57,2.71-2.07,4.43-2.73.3-2.54,2.21-3.47,2.73-5.8,1.05.26.66-.93,1.71-.67,2-4,5.5-6.56,9.2-8.88.4-.51.43-1.39,1-1.7,1.46-.7,2.66-1.66,4.09-2.39,6.38.07,12.68-4.72,18.42-2,3.51-4,11.18-1.44,11.18-1.44A7.53,7.53,0,0,0,492.53,359.24ZM339.75,165.87c1-1.18.22.86.68.69C339.44,167.74,340.22,165.7,339.75,165.87Zm2.37,158.92c-.95-.75,1.08-1.4,1-2.39a.94.94,0,0,1,.68,1A3.13,3.13,0,0,0,342.12,324.79Zm4.43,3.07v-.68h1.37C348.26,328.21,347.16,327.78,346.55,327.86ZM365,361.28c-.84-.44.37-1.26-.34-1.36.22-1,.73.33,1.36,0C366.09,360.81,365.87,361.39,365,361.28Zm55.93,22.18c.55-.1.59.32,1,.33C422.06,384.46,420.37,384.29,420.9,383.46Z" transform="translate(-3.32 -7.56)"/><path class="cls-1" d="M612.89,362c1.38-.9,1.68-2.87,2.73-4.09,3.86.78,7.07-.9,10.23-.69,2.34.16,4.42,2.42,6.83.69,2.27,1,3.36,3.22,6.81,3.07,1.73,1.79,3.11,3.94,4.78,5.79,2.77.27,3.05-1.95,4.78-2.72.86-4,2.79-7.68,3.75-11.26.4-1.51.09-2.44,1-3.75,1.21-1.71,2.64-5.26,4.09-7.16.82-1.08,2.3-1.65,3.41-2.73.77-.75.94-1.81,1.71-2.39.38-.29,1.33-.11,1.71-.34,2.31-1.43,4.07-4.29,6.82-4.78,1.15-2.88,4.22-4.9,3.07-8.18-5.45-3.65-7.68-8.95-9.56-15.35-1.72-.55-1.21-3.33-3.07-3.75.08-1.43-.55-1.61,0-2.73a33.56,33.56,0,0,1-3.4-15c1-1,1.81,0,2-1.7,1.19.85,1.78-.65,2.39-.68,4.58-.28,4.24,3.43,4.78,7.16a16.9,16.9,0,0,0,3.4,1c1.52-3.44,1.22-8.54-.68-11.25-3.71-2.5-10-3.49-14-1-1.39-.28-1.17-.05-2.73,0a16.9,16.9,0,0,1-9.55,4.1c-1.7.12-3.34.11-4.84.37h0c-6.19-.43-9.61-3.49-12.46-6.56s-4.08-9-4.83-10.78,0-4.8,0-7.46a22,22,0,0,0-1.55-6.4,13.37,13.37,0,0,1-.1-1.44c0-.82.61-1.63.7-2.37.26-2.14-.86-4.22-1-6.5-.2-3.95.24-7.92.08-11.93-.35-9,.3-15.73.14-22.17-.41-16.59,1-33.78.68-52.17a2.75,2.75,0,0,0,1-2.37c-1.94-1.61-3.79-2.56-5.43-3.84-1.87-1.46-3.51-2.24-5.44-3.51-2.4-1.58-3.35-3.14-5.08-4.86-.51-.51-1.78-1.89-2-2.08-.78-.6-1.93-.8-2.72-1.41s-1.26-1.52-2-2.09a7.82,7.82,0,0,0-1.69-.83c-.6-.25-5.32-5.31-7.13-5.8-.44.58-1.62.39-1.72,1.33,3.54,6.65,10.89,13.69,9.42,22,.62.34,1.14-1,1.35,0-.46,9.83,0,22.45-.21,32.73-1.91,1.22.21,4.22-1.39,5.1-6.16-1.74-9.78-7.52-16.32-7.79a.94.94,0,0,0,0-1.37c-2.05-.3-3.4-2.19-5.1-3.16-1.48-.83-2.27-.64-3.4-1.42-1.66-1.13-3.26-2.92-5.1-2.48-.32-.92-1.22-1.29-1.69-2.07-2.65.29-2.47-2.7-4.77-1.79-.32-1.73-2.6-2-4.08-2.8s-3-2.39-4.41-2.12c.17-1.07-.42-1.4-1-1.73a7.81,7.81,0,0,1-2.72,0c-2.08,2.46-.44,5.34,1.31,7.52-1.4.91-1.47,3.19-1.39,3.73,1.58,10,.9,25.55.79,36.51,0,3.3-1.06,6-1.08,8.5,0,.6.57,1,.67,1.72.07.41-.41.66-.35,1.36s.69,1.14.68,1.37c-.09,1.31-1.16,2.06-1,3.4,1.16.94-.08,3.25.31,5.46-2.52,2.25-1.58,4.89.63,7.17,1.91,1,4.27,1.34,6.13,2.15.24.11-.09.6.33.7a7.26,7.26,0,0,1,1.71.7c.73.32,2.87.63,3.06.74,1.36.78,2,2.16,3.4,2.79.47.2.77.6,1,.7.81.32,2.06.08,2.73.39,1.27.57,2.53,1.81,3.74,2.45,1.51.8,2.91,1.16,4.42,2.12.8-1.51,2-2.11,1.73-4.06-.17-1.09-1.66-1.73-2.37-2.77-2.39-3.5-1.59-8.62-2-13.68-.19-2.57-.34-5.12-.29-7.84,0-1.41.51-3.2.37-4.43-.08-.73-.65-1.4-.67-2.06-.07-2.88.62-5.85.74-8.85.05-1.2-.39-2.57-.32-3.76s.63-1.95.7-3.06c.4-5.5-.51-11.09,1.13-15.67,4.22,1.87,8.35,3.83,11.56,6.69,4.63.22,6.36,3.26,9.86,4.6,1,.74.21,1.78.32,2.4.05.23.59.43.68,1,.33,2.26-.25,4.93-.39,6.81-.49,6.87.12,14,.21,20.81.09,6.52.18,13.93-.12,19.1-.07,1.21-.71,2.36-.71,3.39s.66,2,.67,3.09c0,.83-.69,1.73-.71,2.71,0,1.42.42,2.85.32,4.1-.14,1.72-.79,3.16-.71,4.76.05,1.14.88,2.13,1,3.43,0,.35-.67,1.14-.7,2,0,.41.69,1.11.68,1.38,0,.5-.62,1.08-.7,1.69-.7,5.41-1.36,9.2-3.15,13.25,1.83.17,1.43-.93,3.07-.29.26-1.68,1.63-2.52,2.74-3.61l.07,0c7.37-5.29,7.37,1.9,13.41,6.17s16.32,5.27,16.32,5.27c8.12.71,15.82-1.22,20.81,3.07.43,1.61,1,3.07,2.39,3.74,2.62,4.88,3.57,11.44,7.16,15.35.14,1.46-.33,3.52.34,4.44a1.88,1.88,0,0,1-1.36,1.36c.17,2.79-3.59,4.29-3.76,7.85a22.21,22.21,0,0,0-4.09,5.11,2.18,2.18,0,0,1-1.7.34c-.77,1.85-3.08,2.16-3.07,4.78-.87.72-1,2.23-2.39,2.38-.38,2.7-1.89,4.26-3.41,5.8-1-.06-2.34.29-2.39-.68-.34,1.34-1.46-.24-2,.68-4.87-3.38-12.48-.89-18.07-1.36-3.12,2.26-6.13-.69-9.55,1-3.5-1.2-6.21-1-8.19-2.05-1.5-.82-3.36-1.14-4.77-2.72a46.51,46.51,0,0,1-12.62-3.07c-.07-1.7-.33-2.45-.34-4.78.82-1.33,2.3-2,3.07-3.41.54,0,1.3-.16,1.36.34,2.74-2,6.12-3.43,9.21-5.12,2,1.3,3.9,2.7,4.77,5.12-1.32,1.35-2.77,3.41-2,5.8,4.78,2.88,6.47-2.63,8.87-5.11-.49-4.18-3.59-5.74-6.48-7.51.07-1.64-2.14-3.4-3.41-4.77h-2.73c-.73.86-2,1.16-2.39,2.38-4.5-.6-7.42,3.25-11.26,4.44.25,1.5-1.1,1.39-1.36,2.39-2.15.34-4.64.35-5.8,1.7-1.21,3.41.45,8.14,1.71,11.94,3.06.22,4.74,1.77,7.84,2.73,1.37.42,3.12,2.09,4.78,2.72,1,.39,2.73-.24,2.73,1.37.85-.44,1.06.17,1.36-.34,1.57,1.73,4.49,2.1,6.14,3.75a7.18,7.18,0,0,1-4.43,3.41c-.76,2.8-3.53,5.29-2.73,8.53-.3,1-.51.38-1.37.34-.43,1.33-.49,2.79-1,4.09-.32.8-1.38,1.64-1.71,2.39-.16.39-.15,1.22-.34,1.7-.73,1.87-.23,3.71-2.39,5.12-3.49-1-4.4.58-6.47,2-2.76-1-4.42.38-6.83.69-.69-3.17-4.8-2.93-5.45-6.14-5.58-3.07-8.3-9-12.28-13.64-5.3-.05-11.54-7.24-18.08-4.1-3.34-1.86-7.7.09-10.57-2.72-2.29.8-4.9.61-6.48,1.36,0,0-5.72.61-6.91,3.45,0,0,9.33-2.35,12.36,1.67,5.75-2.68,12,2.11,18.42,2,1.43.73,2.64,1.69,4.1,2.39.6.31.62,1.19,1,1.7,3.71,2.32,7.16,4.89,9.21,8.88,1-.26.65.93,1.7.67.52,2.33,2.43,3.26,2.73,5.8,1.73.66,3.62,1.16,4.44,2.73a8,8,0,0,1-6.49,5.12c-2.57.47-5.66-.27-7.5,1.36-.26,1.41,4.84,3.29,8.53,2.73,5.24-.81,11.1-3.72,15-3.41.39-.51,1-.83,1-1.7,6.64-1.76,10.28-4.77,17.73-5.8.72-1,.27-3.14,1.37-3.76-1-3.31.4-6.8,1.36-9.89.33-1.06.1-2.21.34-2.73,1-2.17,3.32-2.94,4.44-4.77C606.29,365.68,607.69,360.72,612.89,362Zm54.92-39.57c-.06,1,2,1.64,1,2.39a3.12,3.12,0,0,0-1.71-1.36A.94.94,0,0,1,667.81,322.4ZM663,327.18h1.36v.68C663.79,327.78,662.69,328.21,663,327.18ZM645,359.92c.64.33,1.14-1,1.37,0-.72.1.49.92-.34,1.36C645.08,361.39,644.86,360.81,645,359.92ZM589,383.79c.43,0,.47-.43,1-.33C590.57,384.29,588.89,384.46,589,383.79Z" transform="translate(-3.32 -7.56)"/><path class="cls-1" d="M291.06,416H288c-.69-1.7-2.93-1.85-3.41-3.75-3.19.17-5.16-5.46-7.85-5.8a83,83,0,0,0-5.45-8.18c-.36-2.89-1.63-7.35-4.44-8.87-1.89.29-3.85.12-4.77,2-2.42.72-4.2-1.32-6.48-1.7-1.57-.26-3.22.57-4.78.68-3.35.24-7.69-.72-10.91.34-.9.3-1.17,1.62-2.39,1-.72-3.5-3.54-7.75-4.09-10.23a30.15,30.15,0,0,0-1.71-5.45c-.93-2.27-.35-4.48-.68-6.83,0-.06-.61-.44-.68-.68-1-3.23-.5-6.05-1-8.53-1.3-.58-.47-2.89,0-3.74,7.41-2.09,14.69-1.48,21.49-5.46.11,2.28,1.43,3.35,1.37,5.8a8.14,8.14,0,0,1,2.72,5.45,13.94,13.94,0,0,1-.34,3.07c-.12.53-.72.42-1,1-.2.43.39.81.34,1s-.6.37-.68.68c-.87,3.42-2.56,5-2,7.85,1.39-.37,1.88.13,3.75,0a12.56,12.56,0,0,0,2-5.12c4-1.71,3-7,3.07-11.25-1.72-1.16-2.79-4-3.07-6.49-.16-1.41,1-2.75,0-3.75,1.14-1.42,2.91-2.7,3.75-3.75.69-.85,1.35-2,2.05-2.73,1.12-1.2,3.1-2.24,2.73-4.43,1.44.08,1.73-1,2.73-1.36.87-2.88-1.29-5.43-2.39-8.19-1.54-.16-2-1.39-3.07-2a21.16,21.16,0,0,0-3.07-5.45c-1.23-1.28-1-2.78-1.71-4.44-.48-1.13-1.37-1.56-1.36-2.73,0-3.28,3.94-4.28,3.75-7.5,1.27.36,1.1-.72,1.71-1,.27-1.19-.51-1.31-.34-2.39,1.34-.82,2.07-2.25,3.41-3.07a53.46,53.46,0,0,0,1.44-7,7.2,7.2,0,0,0,.74-3.2,14.17,14.17,0,0,1-.67-2.06,28.13,28.13,0,0,1-.31-5.11c0-.38.71-.95.7-1.35,0-1.25-.66-2.27-.66-3.43,0-3.94,1.09-8,.41-11.93.81-.32.82-1.45,1.38-2-1.77-4.93,0-9.5.43-13.63.19-1.62-.35-3.09,0-4.44.63-2.23,3.35-3.24,2.77-6.09-.38-.76-1.5-.79-2.38-1.06.17-1.07-.48-1.34-.67-2.06a13.71,13.71,0,0,1-4.76-2.81c-.65-.65-.86-.05-1.71,0-3.12-3.62-9.08-4.47-12.22-8.06-2.37,0-4.06-3.5-7.49-3.54a2,2,0,0,0-.33-1.37c-6-2.19-10-6.29-16-8.46-.9-1.5-1.94-2.85-2-5.15,1-.31.23-1.13.69-1.36-1.4-3.74-.48-6.93-.62-9.56,0-.93-.59-2.58-.65-4.1-.59-14,.07-28.3.26-40.92.08-5.36-1.06-10.89,1.45-14.3.78-11.56,2.4-18.74,9-25.51,2.23-2.34,2.87-2.63,2.76-4.48-1.72.07-6,1.68-7.45,2.44s-2.84,2.27-4.79,2.3a3.35,3.35,0,0,1-3.09,2,18.44,18.44,0,0,1-2.06,2.35,8.87,8.87,0,0,1-2.74,1c-.4.85-1,1.52-1.37,2.37a12,12,0,0,0-5.5,5.35c-2.47.44-2.4,2.44-3.44,4s-2.54,2.56-2.42,5.41c-3.14,2.51-3,6-3.48,11.2-.35,4,.52,6.37.28,9.21-.64,7.68-.45,15.57-.5,25.23,0,3.85.7,7.56.27,10.91-.25,1.89-.63,2.45,0,4.1.18,1,1.61.69,1.7,1.73-1.06,2.17-2.67,1.64-4.8,2.65-.53,1.62.43,3.89,1.34,5.14l2.38,0c11.51,6.66,23.78,13.07,34.33,19.7-.17.77-.69,1.73,0,2.39,2.58.18,3.49,2,6.12,2.15,2.53,4.5,2.8,9.59,3,14,.08,1.82.63,3.48.65,5.13.06,5.75-.23,12.34-.46,18.07a33.92,33.92,0,0,0,0,5.79c0,.21.69.29.67.7,0,.56-.73,1.14-.69,1.69s.68,1.08.67,1.72c0,1.77-.7,3.37-.72,5.1,0,.71.62,1.28.67,2.06.18,2.57-1.13,5.53-.05,8.18-1.52,1.94-.66,7.19-.06,9.21l.45,1a2.51,2.51,0,0,1-.86,1.78c.73,3.56-1.89,6.45-2,10.23a2.51,2.51,0,0,0-1,.68c1.18,2.63-2.14,4.32-4.43,5.46-.7,2.63.19,3.92,1,5.8,2.35.87,6.95,4.05,8.87,7.16.73,1.17,1.8,3.59,1.71,4.44-.38,3.21-3.57,1.52-6.49,3.06-1.1,4-6.09,4.14-8.18,7.17-2.57.47-5.59.91-7.84,1.36-.45.09-.85.55-1.37.68-2.57.68-6,1.13-7.84,2.05a21.44,21.44,0,0,0-2.05,1.36c-.53.49-.53,2.81-2.05,2.39.15-4.05-3.85-3.12-5.79-2.73-.67,1.61-2,2.5-1.71,5.12.79.62.38,2,1.36,3.07a1.53,1.53,0,0,1-.34,2.05c1.43.19,1,1.57,1.71,2.38,1.4,1.63,4,1.86,5.12,3.75,4.65-.45,7.67,3.7,10.23,6.48-.55,1.12.43,2.08.68,3.41.15.82-.19,1.86,0,2.74,0,0,.61.15.68.33a8.63,8.63,0,0,1,.34,3.07c2.79,3.2,1.67,8.73,4.44,12.28a4.63,4.63,0,0,1,3.41,4.09c1.91,1.75,6.48.66,8.87-1.36,4.43-.59,13-2.66,17.05-.68v1c2.39.22,2.6,2.62,4.77,3.07-.16,2.32,2.76,1.57,2.73,3.75,6,2.17,9.31,7.07,14,10.57,0,3.27-1.63,4.54-3.41,7.17-1.88,2.79-3.09,5.74-4.77,8.18.61,1,2,1.78,1.36,3.07,2.94,2.76,3.7,7.68,6.82,10.23.2.72.85,1,.69,2,3.32,0,6.57,2.27,10.23.34-1.47-.47-2.72-2.66-5.12-3.07-.26-1.75-1.16-.83-2-1.7-.7-3.43-2.32-6.11-1.71-9.21-.59-.14-.87.51-1,0,.44-7.08,3.9-14.75,12.62-11.94,1.32-1.26,1-3.21.68-4.77C293.07,417.11,291.49,418.1,291.06,416ZM242,321.49c1.25,1.5-.95,1.29,0,0Zm11.25,23.87c-1-.51.25-1.53,1-1.36C254.12,344.69,253.3,344.66,253.2,345.36Zm4.43-3.75c-.1,1.14-1.14,1.36-2,1.71A3.45,3.45,0,0,1,257.63,341.61Zm-10-62.42c.07,3.38-.88-.35-.34-1.37C248.47,277.53,247.85,278.94,247.61,279.19Zm.15-23.53c-.14.65-.43-.22-.34-.69C247.55,254.33,247.85,255.2,247.76,255.66Zm.13,32.74c-.57-.35-.36-1.46-.67-2.06C248.45,286,247.69,287.69,247.89,288.4Zm-.12-34.78c-.74-.64,0-2.68-.66-3.43C248.28,250.59,248.11,252.68,247.77,253.62Zm-.8,18.74h.68v.68H247C247,272.81,247,272.58,247,272.36Zm-2.3,47.42c-1-.33.39-.91.34-1.36C246.06,318.75,244.62,319.33,244.67,319.78Zm-35.13,36.84c-.28-1,.48-.89.34-1.71h1C211,356,210.5,356.55,209.54,356.62Zm9.89,3.07V358c1.15-.13.57,1.48,1,2A1.67,1.67,0,0,0,219.43,359.69Zm5.12-5.12c-.62.92-1.25-1-2.73-.34a2.34,2.34,0,0,1,2.73-.68C224.31,353.82,224,354.48,224.55,354.57Zm.34,8.52c1.28-.25.24,1.82,1.71,1.37C226.06,366,224.65,364.39,224.89,363.09Zm1.71,7.17a1.52,1.52,0,0,1,.68,1.36C226.68,371.54,226.5,371,226.6,370.26ZM277.76,432c1.25,1.5-.95,1.3,0,0Z" transform="translate(-3.32 -7.56)"/><path class="cls-1" d="M767.46,401a4.63,4.63,0,0,1,3.41-4.09c2.77-3.55,1.64-9.08,4.44-12.28a8.41,8.41,0,0,1,.34-3.07c.07-.18.67-.31.68-.33.19-.88-.15-1.92,0-2.74.25-1.33,1.23-2.29.68-3.41,2.56-2.78,5.57-6.93,10.23-6.48,1.15-1.89,3.72-2.12,5.12-3.75.7-.81.28-2.19,1.7-2.38a1.53,1.53,0,0,1-.33-2.05c1-1.07.57-2.45,1.36-3.07.34-2.62-1-3.51-1.71-5.12-1.94-.39-5.94-1.32-5.79,2.73-1.52.42-1.52-1.9-2.05-2.39a21.44,21.44,0,0,0-2-1.36c-1.79-.92-5.27-1.37-7.84-2.05-.52-.13-.92-.59-1.37-.68-2.25-.45-5.27-.89-7.84-1.36-2.09-3-7.08-3.15-8.19-7.17-2.91-1.54-6.1.15-6.48-3.06-.1-.85,1-3.27,1.71-4.44,1.92-3.11,6.52-6.29,8.87-7.16a14.3,14.3,0,0,0,1.15-3.1l.06-.13c1.21-3.23-.28-4.09-1.7-5.27s-3.08-6.63-4.74-13a26,26,0,0,1-1-9.23.85.85,0,0,1-.26.24l-.35.85a.68.68,0,0,1,.35-.85l.35-.84c-1.12-1.86-.3-4.56-.64-7.18-.09-.68-.64-1-.67-1.72-.36-6.12,1.15-13-.91-17.06a8,8,0,0,1,1-2.71,3.42,3.42,0,0,1-1.35-2.41c.83-1.85.5-2.8,1.39-4.41a2.31,2.31,0,0,0-1-2.41c1.4-.61,1-4.55,1.07-7.48-.58-.65-1.31.44-.67-.7a6.66,6.66,0,0,0-.31-4.09c.91-.44.59-2.14,1.37-2.71-.94-1.5.35-1.56-.66-3.42,1.56-6.53.49-10.58.11-17.05,1.83.21,7.13-.42,8.53-.19.71.12,1.15.67,1.7.71,1.51.11,3.26-1,4.44.42,1.18-.83,2.25-.14,4.43-.27,4,4,4.83,11.36,5.36,16.13,2.25.9,3.53,3.58,5.78,1.81.49-.87.07-4.59,0-5.8a3.36,3.36,0,0,1,1-2c.13-1.26-1.38-.91-1-2.41,0-9.41.22-23.52,1.57-31.68-1.25-2.2-2.54-2.85-5.79-2.49,0,.41-.11.8-.69.67-1.16,3.67.32,9.27-.75,11.24-.91,1.68-2.43,2.33-3.09,4-3.34,1.55-10.56-.75-14,1.46-.62-2.23-5.31-.78-7.16-1.49a115.92,115.92,0,0,0,.8-16.7c.1-.67-.46-.68-.68-1,1.22-4.31,1.36-10.72-.6-12.64,2.65-2.87.87-7.11,1.1-11.23,0-.67.63-1.4.69-2a24.78,24.78,0,0,0-.32-3.76c-.11-1.68.39-3.56.38-5.11,0-.5-.7-.91-.67-1.37.08-1.56,1.27-3.18.71-4.77,2.37-.24,3.56-3,6.15-1.93,7-3.18,12.79-9.32,20.2-10.91-.17,2.8-.67,6.69-.06,9.55.67,3.18,0,7-.41,10.23-.54,4.48.2,9.14-3.14,10.51.66,2.85,1.49,5.46,4.41,3.83,1.69-.94,2-1.75,3.43-2.33,0-6.26,5.82-9.32,7.93-14.52,1.27-.54,2.42-1.19,2.75-2.68a2.22,2.22,0,0,0,1.71-.32c.08-.26,0-.67.35-.67.52-.9-.09-1.91.7-3.06a10.78,10.78,0,0,0,2.4-2c-1.31-10.42-.5-21.35-.15-30.36.07-1.65,1.24-3.25-.31-4.78-2.25,3.19-4.4,6.48-8.24,8-3.39,3.51-8,5.73-12.67,8-2.58,2.74-6.1,4.5-9.93,6-3,3.55-8,5.05-12.33,7.29a4.86,4.86,0,0,1-2.74,1.66c-5.5-1.76-5,1-9.89.09-2.61-.47-3.79-1.9-5.69-2.37-4.93-1.23-3.55-2.84-4.49-4.73s-.71-5.93-1.66-7.82-3.08,1.09-3.08,1.09c-.58,18.27.74,34.18,0,53.89.9.47.43,2.29,1,3.09-.09.47-.75.37-1,.66a12.21,12.21,0,0,0,.67,2.4c-1.45,4.39-.08,9-.77,14,.09.71.92-.49,1,.7-.43.58-1.15.87-1,2,0,2.45.23,5.47.29,7.5.13,4.71-1,9.75-.77,14.31.05,1.11.64,2.28.66,3.43,0,.7-.64,1.34-.7,2a85,85,0,0,0-.06,9.55c0,.27.7.33.67,1s-.62,1.39-.69,2c-.42,4,.64,8.07.6,11.94,0,.75-.59,1.57-.69,2.38-.6,5.13.91,10.82.24,16a59.72,59.72,0,0,0-.74,7.83c1.9,1.74.21,6.16,2.68,8.24a14.53,14.53,0,0,0,1.68,5.76l.36,1.44a4.57,4.57,0,0,1,.69.54c.79,1.41,1.62,2.81,2.34,4.21a2,2,0,0,0,0,.71c.33.16.44.54.66.8s.2.41.28.62a2.31,2.31,0,0,1,.84.37,5.75,5.75,0,0,0,1.64,2.86c0,.07-.06.14-.12.23a5.68,5.68,0,0,1,1.44,1.41,4.11,4.11,0,0,1,.72,2.23c0,1.17-.88,1.6-1.37,2.73-.7,1.66-.47,3.16-1.7,4.44a21.16,21.16,0,0,0-3.07,5.45c-1,.66-1.53,1.89-3.07,2-1.11,2.76-3.26,5.31-2.39,8.19,1,.36,1.28,1.44,2.73,1.36-.37,2.19,1.61,3.23,2.73,4.43.7.75,1.36,1.88,2.05,2.73.84,1.05,2.61,2.33,3.75,3.75-1,1,.16,2.34,0,3.75-.28,2.5-1.35,5.33-3.07,6.49,0,4.24-.91,9.54,3.07,11.25a12.69,12.69,0,0,0,2,5.12c1.88.13,2.37-.37,3.75,0,.52-2.81-1.18-4.43-2-7.85-.08-.31-.65-.53-.68-.68s.54-.6.34-1c-.3-.6-.91-.49-1-1a14.57,14.57,0,0,1-.34-3.07,8.15,8.15,0,0,1,2.73-5.45c-.06-2.45,1.26-3.52,1.37-5.8,6.8,4,14.08,3.37,21.49,5.46.47.85,1.3,3.16,0,3.74-.53,2.48-.06,5.3-1,8.53-.07.24-.67.62-.68.68-.33,2.35.25,4.56-.68,6.83a29.37,29.37,0,0,0-1.71,5.45c-.55,2.48-3.37,6.73-4.09,10.23-1.22.6-1.49-.72-2.39-1-3.22-1.06-7.56-.1-10.91-.34-1.57-.11-3.21-.94-4.78-.68-2.28.38-4.06,2.42-6.48,1.7-.92-1.92-2.88-1.75-4.77-2-2.81,1.52-4.08,6-4.43,8.87a81.36,81.36,0,0,0-5.46,8.18c-2.69.34-4.66,6-7.85,5.8-.48,1.9-2.71,2.05-3.41,3.75h-3.07c-.43,2.14-2,1.15-3.75,1.71-.27,1.56-.64,3.51.68,4.77,8.72-2.81,12.19,4.86,12.62,11.94-.15.51-.43-.14-1,0,.61,3.1-1,5.78-1.71,9.21-.88.87-1.78,0-2,1.7-2.4.41-3.65,2.6-5.12,3.07,3.66,1.93,6.91-.32,10.23-.34-.16-1.07.49-1.33.69-2,3.12-2.55,3.88-7.47,6.82-10.23-.64-1.29.75-2.06,1.36-3.07-1.68-2.44-2.89-5.39-4.78-8.18-1.77-2.63-3.44-3.9-3.4-7.17,4.67-3.5,8-8.4,14-10.57,0-2.18,2.88-1.43,2.73-3.75,2.16-.45,2.38-2.85,4.77-3.07v-1c4.07-2,12.62.09,17.05.68C761,401.61,765.55,402.7,767.46,401Zm23.19-46c-.14.82.63.74.35,1.71-1-.07-1.46-.6-1.37-1.71Zm-34.79-35.13c.06-.45-1.38-1-.33-1.36C755.48,318.87,756.91,319.45,755.86,319.78Zm2.73,1.71c.95,1.29-1.25,1.5,0,0ZM734.16,168.33c.7,0,1.23,3.33,0,3.75C734.41,170.6,733.73,168.91,734.16,168.33Zm.17,27.28s0-.33,0-.33C736,195,732.69,197.44,734.33,195.61Zm-.07-43.31c1,.6.38,1.25.33,2.39C733.83,154.53,734.46,153,734.26,152.3Zm0,2.73c1.27.75.29,2.37.32,3.76C733.78,158.19,734.45,156.18,734.25,155Zm.6,12.29c-1.68.05.14-3.3-1-3.77C735.06,162.62,734.26,166.52,734.85,167.32Zm-1.33,100.92c.89-1.16.81,1.77,0,0Zm9.38,73.37a3.44,3.44,0,0,1,2.05,1.71C744.05,343,743,342.75,742.9,341.61Zm4.44,3.75c-.1-.7-.92-.67-1-1.36C747.09,343.83,748.36,344.85,747.34,345.36ZM781.1,358v1.71a1.63,1.63,0,0,0-1,.33C780.54,359.46,780,357.85,781.1,358ZM776,353.55a2.34,2.34,0,0,1,2.73.68c-1.48-.66-2.11,1.26-2.73.34C776.52,354.48,776.23,353.82,776,353.55Zm-.34,9.54c.24,1.3-1.17,2.9-1.71,1.37C775.41,364.91,774.37,362.84,775.65,363.09Zm-1.71,7.17c.1.78-.08,1.28-.68,1.36A1.52,1.52,0,0,1,773.94,370.26ZM722.79,432c.93,1.3-1.26,1.5,0,0Z" transform="translate(-3.32 -7.56)"/><path class="cls-1" d="M235,453.63c-.46-2.6-3.26-2.87-3.41-5.79-1.33.19-1.19-1.08-2.05-1.37,0-.43.44-.47.35-1-2.13-.6-2.61-3.11-4.1-3.41a1.62,1.62,0,0,1,.35-1c-1.61-.56-2.34-2.09-3.07-3.41-.2-.36.17-1,0-1.37-1.25-2.66-5.05-3.24-4.78-6.14-2.55-.44-5-2.39-7.84-3.07-2.37-.56-5,0-6.48-2-2.67,1.39-5.44,0-8.53.35-2.63.25-5.05,1.24-7.16,1-.61-.06-4.55-1.66-5.12-1.7a10.52,10.52,0,0,0-2.05.33c-2.7.39-4.52-.48-5.79.35a2.44,2.44,0,0,0-.69-1c-.34,1.38-1.73,0-2,0-.6-.06-.83.51-1.37.35s-1-.94-1.36-1c.36.08-.57.69-1,.68-1.15,0-1.41-.82-2.05-1.7.18,1.21-1.93-.22-2.73.68a33.58,33.58,0,0,0-3.07-1.7c-.53.26-.51,1.08-1.36,1a35.61,35.61,0,0,0-6.14-5.11c-1.23-4.76-3.29-11.86-2.39-16.38-.57-.34-.24-1.58-1-1.71,1.16-4.4.94-8.81,1-12.27-.68-1.59-2.28-2.27-2-4.78,1.62,0,2.85,1.75,4.43.68,3.33,3.5,7.72,0,12.28,1,2.35-2.05,5,.92,7.16-.34,2.14,1.58,7.49.12,10.91,1.7.67,1.95,2.88,2.35,4.1,3.75,1.35-.54,3.57,1,4.43,2.05,3.32-1.12,4.49.67,8.87-.34,2.09,2.57,4.41,4.91,6.14,7.84,2,.14,3.6-1,3.75-2.39.27-2.67-5-4.9-4.78-7.84a11.91,11.91,0,0,1-3.41-3.41c-2.56-.52-4.68.16-7.16-2.05-1.77.26-2.33.1-4.43.35a7.34,7.34,0,0,0-4.78-1c-1-.44-.81-1.8-2-2.39-1.53-.71-4.31.15-5.46-1-.06-.06,0-1.4-.34-1.7-1.61-.21-3.89-1.21-5.46-.35-1.86-2.65-4.73,0-7.84-1-5.47,3.34-7.91-3.56-14.33-2.38-.48-.66-1.66-.62-2.39-1a9.71,9.71,0,0,1-3.75.67c-2.22-1.88-6.33-.83-9.55-1-.48-.09-.39-.75-.68-1a9.12,9.12,0,0,1-8.18-5.12c-4.39,2.24-8.94-4-13-3.75-.05-.4.06-1-.34-1-3.58-.06-8.75-4.1-13.64-5.12,6.08-2.9,9.24-8.73,13.3-13.64-1-.93-.25-1.54,0-2.73,1.68-1.53,6.57-1.76,7.51-.34a6.82,6.82,0,0,0,3.75-.34c4.6,2.49,10.48-.19,14.32,1,4.3-2.11,7.42-3.35,11.6-3.75,3.12-3,9.25-3,13-5.46,2.14.67,4.37,1.24,5.8,1,1.36,2.4,4.18,3.33,4.77,6.49,3,1.93,7.72-.52,11.26,0,3.36-1.72,6.48-2.34,10.23-4.1,3.29-3.94,9.31-5.34,15-5.79,6.11-.49,9.43-.7,9.2-6.49-.2-5.26-2.18-8.89-1.7-14.66,1,.25,1-.59,2-.34.15-.65.13-1.47,1-1.37.92-4.28-.47-6.11-1.37-9.88-1.49-.45-2.14-1.73-3.07-2.74a2.22,2.22,0,0,0-1.7.34c-2.5-1.8-4.22-4.8-6.82-6.81-.32-.25-1-.07-1.37-.35-.91-.76-1.51-2.05-2.38-2.72a10.5,10.5,0,0,0-1-.35c-.35-.22-.4-.45-.68-.68-1.31-1.07-2.73-1.51-3.75-2.73-.21-.25-.16-.8-.34-1A28.7,28.7,0,0,1,193,268.44a2.44,2.44,0,0,1-1-3.07c-2.25-.21-1.92-2.53-2.39-4.09-.85-2.84-2.33-5.72-3.07-8.87-.88-3.76-.75-7.82-2-10.57,1.29-1.66.71-7.48,0-9.9-.59-2-.28-3.56-.35-5.79,0-.55-.65-1.13-.68-1.71-.08-1.89.74-4.41.68-6.48,0-1.44.31-2.51.35-3.75,0-1-.73-2-.69-3.07,0-.38.63-1,.69-1.36a9.4,9.4,0,0,0-.69-4.78c0-.53.87-.27.69-1-1.67-3.66.61-7.87-1.37-11.6,1-1.58.29-6.38,0-9.55,1.76-2.07.82-4.06.68-6.48-.23-4.2-.08-8.57,0-13,0-.53.63-.85.69-1.36.13-1.29-.71-2.67-.69-4.09.06-4.48.5-13.25-.68-17.06,1.17,0,.13-3.26,1.37-4.09a47.17,47.17,0,0,1-1-10.23c.09-12.27,1.44-22.41,1.71-34.11,1.18-1.88,1.79-4.35,3.07-6.14,1.45-.59,2.94-1.14,2.73-3.41-.61-.87-1.86-1.09-3.07-1.36-2.05,2.27-5,3.69-7.17,5.8-5.42,2.87-9.17,7.42-15,9.89-.73.74-1.06,1.89-2,2.39-2.52.2-2.83,2.62-5.46,2.72-.69.45-.46,1.81-1.36,2-3.21,1.68-6.33,3.44-8.53,6.14a86.07,86.07,0,0,0-10.91,8.53,11.41,11.41,0,0,0-3.41,2c-.5.51-1,.67-1.37,1a28.92,28.92,0,0,1-2.73,2c-.6.54-1.91,1-1.7,2-3.41.08-4.46,3.56-7.84,4.43-.41,3-3.14,3.69-3.41,6.82-1.26.11-1,1.75-2.39,1.71-1,4.28-3.53,9.22-1.71,14-2.33,3.07-.53,6.75-.34,10.23.15,2.71-.67,4.8-.34,7.51-1.62,1.66-.11,5-1.36,6.48a1.89,1.89,0,0,0-1.37.34c-1.85-1.11-2.49-3.42-3.07-5.8a40.38,40.38,0,0,1-3.07-6.48,15.89,15.89,0,0,1-.34-4.09A7.19,7.19,0,0,0,99.22,159c-.24.67-.91.91-1.71,1-2.63-1.43-6.63-1.84-8.86-2.73a48.46,48.46,0,0,0-2.73-4.09c-.48-1.79.1-2.75-.68-4.43-1.8-.2-2.5.69-3.75,1,.13,2.18,1.9,3.24,1,5.46.59.13.87-.51,1,0C84,156.8,85,157.8,84.89,160c2.23,2.25,5,2,8.53,3.07.88.78.69,1.32,1,2,2.48-.31,2.46,4.82,4.1,6.48-.92.75-.1,1.13-.68,2,1.68,1.9,1,4.17,2.72,5.8.51.47,1.48,0,2,.34s1.23,1.89,1.71,2.05c-.92,1.25.67,2.35,1.36,3.07-1.44-.53.07,1.89-1.36,1.36.19,1.11-.24,1.59-.34,2.39-2.71,1.62-3.91,4.73-6.49,6.48a18.11,18.11,0,0,1-4.09,6.82c-1.56,1.73-3.5,2.77-4.43,4.78-1.13,2.42-.4,3.66-2.73,4.77-.41.2-2-.15-3.07.34-.32.15-.38.62-.68.69-.49.1-1.44-.5-2.05-.35-1.52.4-2.4,1.48-4.09,1-.56,2.06-2.22,3-4.43,3.41a20.37,20.37,0,0,1-6.83,5.11c-.45,2.51-2.75,3.16-5.11,3.76-1.86-1.1-5-1-6.82-2.05-2.44.93-4.22.59-6.83,0-.88,1.12-2.24,1.26-2.38,2.73,0,.46,1.07,1.79,1.36,2,.79,1.09,1.52-.73,2.73-.35,1.58,1.5,4.54-.74,6.14,1.37.23-1.2,3.3.22,4.09.68.45,1,.1,1.19.34,2.73.44.48,1.67.15,1.71,1,1.62-.42,2.42-1.67,3.41-2.73,3.53-1.92,7-3.92,8.87-7.5,1.5,0,3.93-1.93,5.45-3.07,1.86.37,3.28-.82,5.12-1,.58-.07,1.36.48,2,.34s1.22-1,2-1c1.43-.08,3.12,1.07,4.78,1,1.14,0,2.17-1.07,3.41-.68,2-3.62.57-7,1.7-11.6a34.74,34.74,0,0,0,6.14-7.84c.46-.11.65-.49,1.37-.35a7.77,7.77,0,0,1,.68-2c4.5-3.63,11.29,1.13,15.69-2.39,3.59.08,4.41.23,8.18.34,1.06.35,2.24,1.86,3.41,1,1.17,2.15,3,1.51,4.44,3.42-6.58,4.22-12.71,8.89-17.4,15a2,2,0,0,0-1.36.34c-2.25,3.21-5.72,5.2-7.5,8.87h-1c-2.11,5.1-6.12,9.36-7.84,15-.64,2.08-.35,4.36-2,6.14,1.4-.1-.06.47.34,1.36a8.22,8.22,0,0,0-1.7,5.11c-1.46,1.05-1.83,3.18-2.05,5.46-1.69,4.33-3.52,8.24-3.75,13-1.75.76-1.09,3.91-3.07,4.44-1.52,6.66-6,10.41-10.57,14-3.46,1.2-4.83,4.5-8.53,5.46-2.15-1.39-5.2.24-7.84-.35-1.09-.24-2.59-1.87-3.07-2-.68-.24-1.52.24-2,0-.17-.08-.37-.88-.68-1-1.15-.51-2.93-.3-3.07-1.7-2.45.36-3.18-1-4.43-1.36-.59-.19-1.67.17-2,0-1-.46-1.54-1.87-2.73-2.05-1.69-.26-3.33.8-5.46,1.37-.34-.46-.92-.68-1-1.37-1.65.64-1.83-.58-3.75,0-.92-1.22-2.17-.77-3.41-1.7-1-.74-1.46-2.4-2.39-3.07-2.57-1.87-6.62.09-9.55-1.37-.77-.38-.43-1.82-1.7-1.7-.82.62-2,.89-4.1,1-1.08,1.08-2.28,2-3.41,3.07,0-.35.28-.41.34-.68-.94.3-1,1.21-1.7,2-1.41,1.61-3.52,2.89-3.07,5.12-2.91,1.6-2.93,6.83.68,6.14-.32-2.51,2.22-2.14,3.75-2.73.42-.16,1.08-1,1.71-1.36s1.74-.64,2.38-1c1.3-.78,1.82-1.9,2.73-2,1.93-.3,3.69,1,5.46,2-1.25,1.5,1.74,1,1,3.07,2.12-.32,3,1.16,3.07,2.73,0,.79-.6.6-1.36,2.05-.56,1.06-.56,2.54-1,3.4s-1.4,1.27-1.7,2.05c-.18.49.23,1.25,0,1.71s-1.17.39-1.36.68a7,7,0,0,0,0,1.37c-.26.87-.82,1-.69,1.7-1.06.41-1.48,1.47-2.72,1.7a3.54,3.54,0,0,1-2.73,3.42c-.76,2.9-4,4.47-4.78,7.16-.22.75.62,1.44-.34,2,1.37.65,1.62,2.9,2.05,4.44.95,3.41-.3,6.64.34,9.89.21,1.08,1.1,1.83.34,3.07,1.93.58,3.71,1,5.12-.34-.47-2.66-1.16-5.14,1-6.48,1.28.14,2.22.43,4.09.68,1.4,2.72,4.61,1.58,6.14,4.77,4-.14,4.39,2.09,6.14,4.1.73.83,1.67,1.43,2.05,2,.49.8.28,2.07.68,2.73s1.48.25,1.36,1.37c-.21,1.68.65,2.31-.34,3.06,1.66,1.19,2.56,3.14,3.75,4.78,7.16,3,12.16,9.88,17.4,13.64a16.28,16.28,0,0,0,4.09,6.14c.47,4.37,2.6,3.58,3.41,6.82,3.24,1.63,4.17,6.31,7.5,6.83.78,1.84,2.75,2.48,3.41,4.43,3,.36,6.1,1.43,6.14,3.75h2.73A37.68,37.68,0,0,0,88.31,394c-.6-.09-.78-.59-.69-1.36-3.54-1.29-6.75-1.27-8.86-4.1-.76-1-.87-2.45-1.37-3.07A17.23,17.23,0,0,1,75,381.33c-3.92-1.61-5.76-7.75-8.86-11.26.26-.07.67,0,.68-.34a8.78,8.78,0,0,1-2.39-3.07c-5.18-2.43-7.78-7.45-10.23-12.61-2.37-1.75-6.1-4.34-7.16-6.83-1.6-3.71-3.25-7.22-6.14-9.89.29-1.29-1.13-1.6-.34-2.38-1.13-.12-1.48-1-2.05-1.71-2.27.36-2.95-2.15-4.77-3.07-3.53-1.78-8.65-1.09-10.24-5.12A4.2,4.2,0,0,1,19.41,322a94.34,94.34,0,0,1,10.23-10.91c1.64-5,3.88-9.31,5.46-14.32,5.82-.43,10.73,4.66,15.35,1.36,1,.51,1.14,2.34,2.73,1.36,1,2.62,4.82,3.58,5.11,5.8,3.57,1.77,6.14,2.66,6.14,8.19,1.14,1.71,2.72,3,3.07,5.45-.69.47-.56.62-1,1-.17.14.13.83,0,1A13.08,13.08,0,0,1,62,324.37c-3.49,1.19-9.66-.21-9.2,5.12,1.15-.13,1.45.59,2,1,3.91-1.3,7.33-.05,11.6.68a15.49,15.49,0,0,0,3.41-3.07c1.18-1.41,2.65-3.22,3.07-4.77.12-.44.55-.1.68-.34a18.86,18.86,0,0,1,.68-2.39c.54-1,1.3-1.51,1.37-2.05.41-3.52-4.7-6.25-2-8.86-.42,0-.81-.11-.68-.68a9.39,9.39,0,0,0,1.7-2.74h1c2.44-3.8,6.34-6.15,9.55-9.2.85-.29,1.34-.94,2.38-1,5.1-4.9,10.87-9.14,16.38-13.64,7.93-10.31,13.36-21.23,18.41-34.11,3.58-2,4.83-6.3,8.53-8.18,3.47-5.39,9-8.71,13.3-13.3,2.75-.32,3.12-3,6.14-3.07,1.27-2,3.8-2.79,6.48-3.41.67-1,1.37-2,3.41-1.71-1,5.66,1.35,13.53-.34,18.76,1.31,5.52,2.86,11.45,3.41,17,.16,1.62-.43,3.37,0,4.78.2.66,1,1,1.36,1.71a11.81,11.81,0,0,1,1.37,4.77c3.22,1.56,3.5,6.05,5.8,8.53.44.34,1.25.33,1.7.68,4.44,4.88,8.61,10,14.33,13.64.14.54,1.07.29.68,1.37,2,.74,2.46,3,4.43,3.75,1.87,2.45,4.72,3.92,6.14,6.82h1.37c1.78,2.65,4.17,4.69,5.45,7.84a2.26,2.26,0,0,0-.34,1.71,6,6,0,0,1,1.36,2.73c-1,.78,0,3.31-.34,5.46-2.61,1-4.55,3.84-7.84,3.06-5,2.34-8.85,4.54-14.67,6.48a15.33,15.33,0,0,1-4.77-3.75c0-2.51-2.18-2.83-3.07-4.43-7.34.17-12-5.26-14-11.6-1.45-.72-2.93-1.39-3.41-3.07-2.56.17-3.13-1.65-5.8-1.36.13-.82-1.55.19-1-1-2,.57-4,2.31-6.14.35,0,.53.05,1.18-.68,1-3.39-2.11-8-1.26-13-1.37-.22-2.78,1-6.06-.68-7.5,1.09-2.5-.09-5.5-.68-8.19,4.18-1.15,7.49-1.29,11.6-2.72,2.49,2.85-1.41,5-1,7.5-.68-.57-.43,0-1.36,0-.68,1.26.08,2.41-.34,3.41,1.06-.5,1.39,0,2,.69,2.06-1.36,5.35-1.48,6.82-3.42.5-2.56-.92-3.38-.34-5.11-1.87-1.89-1.37-5.8-3.75-7.85-3.14.09-3.85-.39-7.16-.34-2.27,2-6.13,3.06-9.55,3.41-.44.05-.82-.7-1.36-.68-.06,0-1.14.62-1.37.68a6.82,6.82,0,0,0-1.36.34,31.15,31.15,0,0,0-.34,6.48c.3.6,1.25.57,1.36,1.37.71,4.5-.15,8.8,1.36,13.3-1.19.86-.67,2.34-1,3.41,3.07,2.5,6.2.62,8.87.34,2.36-.25,4.78.89,7.16.34,2.13,1.61,4.58.27,7.16,2.05,1.7-.78,3.93.54,5.12,1.36.37,1.51-.58,1.7-.68,2.73,3.54.75,3.77,4.95,2.72,8.52-6.3,1.65-9.26,3.38-16.71,2.74-2.55,1.76-5.81,2.83-7.5,5.45-1.39-.79-2.11,1.15-3.41,1.37a4.57,4.57,0,0,0-1-.35c-2.79-.05-3.22-.51-4.78-.68-.54-.06-1.12.36-1.7.35-2-.07-4-1.3-6.14-1.71-3.54-.67-7.55-.42-10.92-1.71-.58.32-.68,1.4-1.36.68-2.17,3.42-1.35,7.17-3.07,10.58-.53,1.05-2.18,2.5-3.41,3.75-2.33,2.35-5.14,4.32-7.16,6.14a12.41,12.41,0,0,1-3.42,2,54.81,54.81,0,0,1-3.75,4.78c1.26,5.27,4.57,7.82,9.89,7.85,6.84,4.29,15,5.19,22.17,7.5.44,1.57,1.61,1.06,2.73,1.36.85,2.69,4.75,1.69,5.8,3.41,1.28-.26,1.63.42,2.73.35,1.6,1.19,2.52,2.22,3.75,3.07.51.35,1.29.78,1.7,1,1.27.7,2.75.62,4.1,1.36.1.06-.08.59,0,.68s.84-.15,1,0c.41.35.38,1.4,1,1.37.4,2.07,2.29,2.9,3.42,4.43s1.51,3.43,2.72,5.12c-.16,2.88-.21,5.48-2,8.53.26,3.64,3,7.17,3.07,11.25.06,2.47-.85,4,0,6.14,1,2.46,2.65,2.69,4.09,4.09s2.72,2.9,4.43,3.41c1,2.48,1.94,5.45,1,7.51,2.48,4,8.09,13.36,9.55,12.61.42-3.4.48-11.55,3.75-11.25.51-4.82,5.72-3.12,8.87-2.73,2-1.84,5.41-.43,8.18,0,5.41.84,11.08-.9,16,1.71,3.54-2.32,6.38,1.35,11.94.68a9.48,9.48,0,0,0,5.11,4.77,2.2,2.2,0,0,0,.35,1.71c2.7,3.32,5.86,6.18,8.18,9.89,1.35,1,3,1.75,3.41,3.75,2.75.78,2.67,4.39,6.14,4.44,1.07,2.27,2.16,1.8,2.73,3.4a13.25,13.25,0,0,1,.34,5.12c-.07.23-.91.17-1,.34s.11.76,0,1c-1.19,2.75-.41,2.51.34,4.44a36.45,36.45,0,0,0,6.14-6.82c.65-6.86-3.06-9.44-5.8-13.64C236.21,454,236,453.39,235,453.63Zm-76.4-73.32c-1,.24-1.24-.35-2-.35C156.57,378.9,158.6,379.31,158.56,380.31Zm57.64-78.45c-.2,1.28-1.19,1.77-1.7,2.73C214.24,304.2,215,301.9,216.2,301.86Zm-7.84,20.47c.55-.1.59.32,1,.33C209.52,323.33,207.83,323.16,208.36,322.33ZM82.17,215.92c0-.1.73-.64,1-.35S81.85,216.52,82.17,215.92ZM105,192a.93.93,0,0,1,1-.68A.93.93,0,0,1,105,192Zm3.41-2.73c-.79-.09-.78-.91-.34-1.36.45.12.53.6,1,.68C109,189,108.43,188.86,108.43,189.31Zm.34,2.05c.45.35,1.26.33,1.71.68C110.28,192.31,108.87,192.61,108.77,191.36ZM115.59,147c.18-.5.51-.86.68-1.36C116.72,145.49,116.42,147.35,115.59,147Zm9.55,45.36c.59-.73,2.54-1,2.73.34C126.58,193,126.24,192.31,125.14,192.38ZM15,321.64c-.49,1.5-1.41-1.6,0-1C14.74,320.9,14.45,321.55,15,321.64Zm20.46-33.42c-1.94,1.23-1.5-.87,0,0Zm57-8.87v-.68c.29.06.32-.13.34-.34C93.4,278.2,93.24,279.88,92.4,279.35Zm44-51.5c-.61-.25-.05-.62,0-1C137,227.08,136.44,227.45,136.4,227.85Zm24.21-81.17c-1.17,5.72.41,15.44-.34,20.12-.19.76.65.49.68,1,.18,4.52-1.14,8.1-1.36,13.3-.12,2.75,1,5.62.68,8.18-.08.65-.65,1.14-.68,1.71-.15,3,.86,6.42,0,8.87-1.15,0-2.28,0-2.05-1.37-.89,1.34-2.59-.38-3.75-1-.55-.31-1.31-.1-1.71-.34s-.12-.88-.34-1c-.89-.6-2.39-1.08-3.41-1.7-2.9-1.77-6-3.46-8.18-6.14-2.16.23-2.4-1.47-4.1-1.71-.48-3.47-3.56-6.3-1-9.2-1.6-3.07-1.38-5.5-1-9.55a8.45,8.45,0,0,1-1.37-1.37c.18-.5.51-.86.69-1.36-1-5.42-.77-8.56-1.37-13.64,1.29-1,.68-2.47,1-3.76.27-1,1.06-1.78,1.36-2.73.18-.57-.13-1.48,0-2,.49-2.05,2-3.62,2.39-5.8,1,0,1.32-.72,2-1-.33-1.36,1-1,.69-2.39,1.64-.63,2.36-2.18,3.07-3.75,4-3.55,7.72-7.28,11.93-10.58.72-.14.91.24,1.37.35.48-1.08,1.43-2,.68-3.42.68.58.43,0,1.36,0-.84,1.63.66,2.68,1.71,3.42.38,5,0,10.1.34,15,0,.65.58,1.09.68,1.71s-.36,1.1-.34,1.7.59.72.68,1.37c.3,2.19-.65,4.7-1,6.48C159.8,146.58,160.2,146.64,160.61,146.68Zm9.55,77.42c-.61-.25,0-.62,0-1C170.77,223.33,170.21,223.7,170.16,224.1Zm2.05-68.21c.37.08.23.68.68.68C172.74,157.51,171.82,156.59,172.21,155.89Zm8.52,12.62c1.26,1-1,1.15,0,0Zm-.68,29.33a6.94,6.94,0,0,1,.68,3.41C179.15,200.83,180.06,199.25,180.05,197.84Zm.68-3.75a2.82,2.82,0,0,1-.68-2.05C181.28,191.72,180.53,193.38,180.73,194.09Zm0-23.88c.51.29.5,1.1.69,1.71C180.27,172.27,180.89,170.86,180.73,170.21Zm23.54,128.24q1.11-.09,1,1C204.55,299.54,204.21,299.19,204.27,298.45ZM173.91,328.8q-1.11.1-1-1Q174,327.69,173.91,328.8Zm-86.29,30q-1.11.09-1-1h1Zm2,.68c2,.22,3.46-1,3.41,1.37C91.38,361,89.92,360.85,89.67,359.5Zm3.75-8.87c.57-.68.92-1.58,2-1.7C95.36,350.07,94.33,350.29,93.42,350.63ZM105.36,365a35.82,35.82,0,0,1-8.53-2c-.25-1.12.68-.52.68,0a20.12,20.12,0,0,1,6.14.68c.08,0-.07.65,0,.69C104,364.4,105.94,363.91,105.36,365Zm22.85,8.86c.59.44,1.34.71,1.37,1.71C128.61,375.47,128.12,374.94,128.21,373.82Zm32.06,60.72c-.81,1.09-1.38-1.2,0,0Z" transform="translate(-3.32 -7.56)"/><path class="cls-1" d="M994.57,287.88c.45-2.23-1.66-3.51-3.07-5.12-.72-.83-.76-1.74-1.7-2,.06.27.34.33.34.68-1.13-1-2.33-2-3.41-3.07-2.06-.13-3.28-.4-4.09-1-1.28-.12-.94,1.32-1.71,1.7-2.93,1.46-7-.5-9.55,1.37-.93.67-1.41,2.33-2.39,3.07-1.24.93-2.49.48-3.41,1.7-1.92-.58-2.1.64-3.75,0-.1.69-.68.91-1,1.37-2.13-.57-3.78-1.63-5.46-1.37-1.19.18-1.69,1.59-2.73,2.05-.38.17-1.46-.19-2,0-1.25.4-2,1.72-4.43,1.36-.14,1.4-1.92,1.19-3.07,1.7-.31.15-.51.95-.68,1-.53.24-1.37-.24-2,0-.48.17-2,1.8-3.07,2-2.64.59-5.69-1-7.84.35-3.7-1-5.07-4.26-8.53-5.46-4.61-3.57-9-7.32-10.57-14-2-.53-1.32-3.68-3.07-4.44-.23-4.72-2.06-8.63-3.75-13-.22-2.28-.59-4.41-2-5.46a8.22,8.22,0,0,0-1.7-5.11c.4-.89-1.06-1.46.34-1.36-1.7-1.78-1.41-4.06-2.05-6.14-1.72-5.65-5.73-9.91-7.84-15h-1c-1.78-3.67-5.25-5.66-7.5-8.87a2,2,0,0,0-1.36-.34c-4.69-6.11-10.82-10.78-17.4-15,1.41-1.91,3.27-1.27,4.44-3.42,1.17.84,2.35-.67,3.41-1,3.77-.11,4.6-.26,8.18-.34,4.4,3.52,11.19-1.24,15.69,2.39a7.77,7.77,0,0,1,.68,2c.72-.14.91.24,1.37.35a34.74,34.74,0,0,0,6.14,7.84c1.13,4.64-.31,8,1.7,11.6,1.24-.39,2.27.65,3.41.68,1.66,0,3.35-1.11,4.78-1,.82.05,1.39.9,2,1s1.47-.41,2-.34c1.84.2,3.26,1.39,5.12,1,1.52,1.14,4,3,5.45,3.07,1.88,3.58,5.33,5.58,8.87,7.5,1,1.06,1.79,2.31,3.41,2.73,0-.87,1.27-.54,1.71-1,.24-1.54-.11-1.71.34-2.73.79-.46,3.86-1.88,4.09-.68,1.6-2.11,4.56.13,6.14-1.37,1.21-.38,1.94,1.44,2.73.35.29-.26,1.41-1.59,1.36-2-.14-1.47-1.5-1.61-2.39-2.73-2.6.59-4.38.93-6.82,0-1.87,1.08-5,1-6.82,2.05-2.36-.6-4.66-1.25-5.12-3.76a20.43,20.43,0,0,1-6.82-5.11c-2.21-.41-3.87-1.35-4.43-3.41-1.69.45-2.57-.63-4.09-1-.61-.15-1.56.45-2,.35-.3-.07-.36-.54-.68-.69-1.07-.49-2.66-.14-3.07-.34-2.33-1.11-1.6-2.35-2.73-4.77-.93-2-2.87-3.05-4.43-4.78a18.11,18.11,0,0,1-4.09-6.82c-2.58-1.75-3.78-4.86-6.49-6.48-.1-.8-.53-1.28-.33-2.39-1.44.53.07-1.89-1.37-1.36.69-.72,2.28-1.82,1.37-3.07.47-.16,1.16-1.75,1.7-2.05s1.54.13,2-.34c1.73-1.63,1-3.9,2.72-5.8-.58-.91.24-1.29-.68-2,1.64-1.66,1.62-6.79,4.09-6.48.34-.73.15-1.27,1-2,3.57-1,6.3-.82,8.53-3.07-.14-2.18.9-3.18,1.36-4.77.15-.51.43.13,1,0-.87-2.22.89-3.28,1-5.46-1.26-.33-2-1.22-3.75-1-.78,1.68-.2,2.64-.68,4.43a48.46,48.46,0,0,0-2.73,4.09c-2.23.89-6.23,1.3-8.86,2.73-.8-.11-1.47-.35-1.71-1a7.19,7.19,0,0,0-3.75,2.39,15.89,15.89,0,0,1-.34,4.09,40.38,40.38,0,0,1-3.07,6.48c-.58,2.38-1.22,4.69-3.07,5.8a1.89,1.89,0,0,0-1.37-.34c-1.25-1.5.26-4.82-1.36-6.48.33-2.71-.49-4.8-.34-7.51.19-3.48,2-7.16-.34-10.23,1.82-4.76-.72-9.7-1.71-14-1.4,0-1.13-1.6-2.39-1.71-.27-3.13-3-3.82-3.41-6.82-3.38-.87-4.43-4.35-7.84-4.43.21-1.1-1.1-1.51-1.7-2a28.92,28.92,0,0,1-2.73-2c-.33-.36-.86-.52-1.37-1a11.41,11.41,0,0,0-3.41-2,86.07,86.07,0,0,0-10.91-8.53c-2.2-2.7-5.32-4.46-8.53-6.14-.89-.24-.67-1.6-1.36-2-2.63-.1-2.94-2.52-5.46-2.72-1-.5-1.32-1.65-2.05-2.39-5.83-2.47-9.58-7-15-9.89-2.22-2.11-5.12-3.53-7.16-5.8-1.22.27-2.47.49-3.08,1.36-.21,2.27,1.28,2.82,2.73,3.41,1.28,1.79,1.88,4.26,3.07,6.14.27,11.7,1.62,21.84,1.71,34.11a47.8,47.8,0,0,1-1,10.23c1.24.83.2,4.11,1.37,4.09-1.18,3.81-.74,12.58-.68,17.06,0,1.42-.82,2.8-.69,4.09.06.51.68.83.69,1.36.07,4.39.23,8.76,0,13-.14,2.42-1.08,4.41.68,6.48-.3,3.17-1,8,0,9.55-2,3.73.3,7.94-1.37,11.6-.18.75.66.49.69,1a9.29,9.29,0,0,0-.69,4.78c.06.39.67,1,.69,1.36,0,1.06-.71,2-.69,3.07,0,1.24.39,2.31.35,3.75-.06,2.07.76,4.59.68,6.48,0,.58-.67,1.16-.68,1.71-.07,2.23.24,3.83-.35,5.79-.71,2.42-1.29,8.24,0,9.9-1.29,2.75-1.16,6.81-2,10.57-.74,3.15-2.22,6-3.07,8.87-.47,1.56-.14,3.88-2.39,4.09a2.44,2.44,0,0,1-1,3.07,28.7,28.7,0,0,1-5.12,10.23c-.18.22-.13.77-.34,1-1,1.22-2.44,1.66-3.75,2.73-.29.23-.32.46-.68.68a10.5,10.5,0,0,0-1,.35c-.87.67-1.47,2-2.38,2.72-.34.28-1.05.1-1.37.35-2.6,2-4.32,5-6.82,6.81a2.25,2.25,0,0,0-1.71-.34c-.92,1-1.57,2.29-3.07,2.74-.89,3.77-2.28,5.6-1.36,9.88.9-.1.88.72,1,1.37,1-.25,1,.59,2,.34.48,5.77-1.5,9.4-1.71,14.66-.22,5.79,3.1,6,9.21,6.49,5.7.45,11.72,1.85,15,5.79,3.74,1.76,6.87,2.38,10.23,4.1,3.54-.52,8.26,1.93,11.26,0,.59-3.16,3.41-4.09,4.77-6.49,1.43.22,3.66-.35,5.8-1,3.71,2.43,9.84,2.44,13,5.46,4.18.4,7.3,1.64,11.6,3.75,3.84-1.21,9.71,1.47,14.32-1a6.82,6.82,0,0,0,3.75.34c.94-1.42,5.83-1.19,7.51.34.25,1.19,1,1.8,0,2.73,4.06,4.91,7.22,10.74,13.3,13.64-4.89,1-10.06,5.06-13.64,5.12-.4.05-.29.62-.34,1-4-.24-8.57,6-13,3.75a9.12,9.12,0,0,1-8.18,5.12c-.29.27-.2.93-.68,1-3.22.19-7.33-.86-9.55,1a9.71,9.71,0,0,1-3.75-.67c-.73.4-1.91.36-2.39,1-6.42-1.18-8.86,5.72-14.33,2.38-3.11,1.06-6-1.63-7.84,1-1.57-.86-3.85.14-5.46.35-.33.3-.28,1.64-.34,1.7-1.15,1.17-3.94.31-5.46,1-1.23.59-1,2-2,2.39a7.34,7.34,0,0,0-4.78,1c-2.1-.25-2.66-.09-4.43-.35-2.48,2.21-4.6,1.53-7.16,2.05a11.91,11.91,0,0,1-3.41,3.41c.25,2.94-5.05,5.17-4.78,7.84.15,1.44,1.77,2.53,3.75,2.39,1.73-2.93,4.05-5.27,6.14-7.84,4.38,1,5.56-.78,8.87.34.85-1.09,3.08-2.59,4.44-2.05,1.21-1.4,3.43-1.8,4.09-3.75,3.42-1.58,8.77-.12,10.91-1.7,2.18,1.26,4.81-1.71,7.16.34,4.56-1,9,2.47,12.28-1,1.58,1.07,2.81-.7,4.43-.68.24,2.51-1.36,3.19-2,4.78.09,3.46-.14,7.87,1,12.27-.78.13-.45,1.37-1,1.71.9,4.52-1.16,11.62-2.39,16.38a35.61,35.61,0,0,0-6.14,5.11c-.85.06-.83-.76-1.36-1a33.58,33.58,0,0,0-3.07,1.7c-.8-.9-2.91.53-2.73-.68-.64.88-.9,1.68-2,1.7-.45,0-1.38-.6-1-.68-.41.09-.89.88-1.36,1s-.77-.41-1.37-.35c-.31,0-1.7,1.38-2,0a2.44,2.44,0,0,0-.69,1c-1.27-.83-3.09,0-5.79-.35a10.52,10.52,0,0,0-2-.33c-.57,0-4.51,1.64-5.12,1.7-2.11.22-4.53-.77-7.16-1-3.09-.3-5.86,1-8.53-.35-1.48,2-4.11,1.49-6.47,2-2.83.68-5.3,2.63-7.85,3.07.27,2.9-3.53,3.48-4.78,6.14-.17.37.2,1,0,1.37-.73,1.32-1.46,2.85-3.07,3.41a1.56,1.56,0,0,1,.35,1c-1.49.3-2,2.81-4.1,3.41-.09.55.33.59.34,1-.85.29-.71,1.56-2,1.37-.15,2.92-3,3.19-3.41,5.79-1-.24-1.25.35-2,.35-2.74,4.2-6.45,6.78-5.8,13.64a36.45,36.45,0,0,0,6.14,6.82c.75-1.93-.61-5.57-.68-5.8a13.25,13.25,0,0,1,.34-5.12c.58-1.6,1.66-1.13,2.73-3.4,3.47-.05,3.39-3.66,6.14-4.44.39-2,2.06-2.72,3.41-3.75,2.32-3.71,5.48-6.57,8.18-9.89a2.17,2.17,0,0,0,.34-1.71,9.47,9.47,0,0,0,5.12-4.77c5.56.67,8.39-3,11.94-.68,4.95-2.61,10.62-.87,16-1.71,2.77-.43,6.14-1.84,8.18,0,3.15-.39,8.36-2.09,8.87,2.73,3.27-.3,3.33,7.85,3.75,11.25,1.46.75,7.07-8.61,9.55-12.61-.91-2.06,0-5,1-7.51,1.71-.51,2.94-2,4.43-3.41s3.12-1.63,4.09-4.09c.85-2.16-.06-3.67,0-6.14.11-4.08,2.81-7.61,3.07-11.25-1.83-3.05-1.88-5.65-2-8.53,1.21-1.69,1.6-3.58,2.72-5.12s3-2.36,3.42-4.43c.65,0,.61-1,1-1.37.18-.15.87.18,1,0s-.1-.62,0-.68c1.35-.74,2.83-.66,4.1-1.36.41-.24,1.18-.67,1.7-1,1.23-.85,2.15-1.88,3.75-3.07,1.1.07,1.45-.61,2.73-.35,1.05-1.72,5-.72,5.8-3.41,1.12-.3,2.29.21,2.73-1.36,7.18-2.31,15.33-3.21,22.17-7.5,5.32,0,8.63-2.58,9.89-7.85a53,53,0,0,1-3.75-4.78,12.41,12.41,0,0,1-3.42-2c-2-1.82-4.83-3.79-7.16-6.14-1.23-1.25-2.88-2.7-3.41-3.75-1.72-3.41-.9-7.16-3.07-10.58-.67.72-.78-.36-1.36-.68-3.37,1.29-7.38,1-10.92,1.71-2.17.41-4.18,1.64-6.14,1.71-.58,0-1.16-.41-1.7-.35-1.56.17-2,.63-4.78.68a4.57,4.57,0,0,0-1,.35c-1.3-.22-2-2.16-3.41-1.37-1.69-2.62-5-3.69-7.5-5.45-7.45.64-10.41-1.09-16.71-2.74-1-3.57-.82-7.77,2.72-8.52-.1-1-1.05-1.22-.68-2.73,1.19-.82,3.42-2.14,5.12-1.36,2.58-1.78,5-.44,7.16-2.05,2.38.55,4.81-.59,7.16-.34,2.66.28,5.8,2.16,8.87-.34-.34-1.07.17-2.55-1-3.41,1.5-4.5.65-8.8,1.36-13.3.11-.8,1.06-.77,1.36-1.37a31.15,31.15,0,0,0-.34-6.48,6.82,6.82,0,0,0-1.36-.34c-.23-.06-1.31-.68-1.37-.68-.54,0-.92.73-1.36.68-3.42-.35-7.28-1.43-9.55-3.41-3.31-.05-4,.43-7.16.34-2.38,2-1.88,6-3.75,7.85.58,1.73-.84,2.55-.34,5.11,1.47,1.94,4.76,2.06,6.82,3.42.65-.7,1-1.19,2-.69-.42-1,.34-2.15-.34-3.41-.93,0-.68-.57-1.36,0,.38-2.47-3.51-4.65-1-7.5,4.11,1.43,7.42,1.57,11.6,2.72-.59,2.69-1.77,5.69-.68,8.19-1.67,1.44-.46,4.72-.68,7.5-5,.11-9.57-.74-13,1.37-.73.16-.65-.49-.69-1-2.15,2-4.11.22-6.13-.35.53,1.22-1.17.21-1,1-2.67-.29-3.24,1.53-5.8,1.36-.47,1.68-2,2.35-3.41,3.07-1.95,6.34-6.65,11.77-14,11.6-.89,1.6-3.08,1.92-3.07,4.43a15.33,15.33,0,0,1-4.77,3.75c-5.82-1.94-9.69-4.14-14.67-6.48-3.29.78-5.23-2.1-7.84-3.06-.35-2.15.68-4.68-.35-5.46a6.08,6.08,0,0,1,1.37-2.73,2.26,2.26,0,0,0-.34-1.71c1.28-3.15,3.67-5.19,5.45-7.84h1.37c1.42-2.9,4.27-4.37,6.14-6.82,2-.76,2.45-3,4.43-3.75-.39-1.08.54-.83.69-1.37,5.71-3.6,9.88-8.76,14.32-13.64.45-.35,1.26-.34,1.7-.68,2.3-2.48,2.58-7,5.8-8.53a11.81,11.81,0,0,1,1.37-4.77c.31-.67,1.16-1.05,1.36-1.71.43-1.41-.16-3.16,0-4.78.55-5.6,2.1-11.53,3.41-17-1.69-5.23.62-13.1-.34-18.76,2-.34,2.74.67,3.41,1.71,2.68.62,5.21,1.39,6.48,3.41,3,.05,3.39,2.75,6.14,3.07,4.28,4.59,9.83,7.91,13.3,13.3,3.7,1.88,5,6.2,8.53,8.18,5,12.88,10.48,23.8,18.41,34.11,5.51,4.5,11.28,8.74,16.37,13.64,1,.09,1.54.74,2.39,1,3.2,3.05,7.11,5.4,9.55,9.2h1A9.39,9.39,0,0,0,927,309c.13.57-.27.64-.68.68,2.65,2.61-2.46,5.34-2.05,8.86.07.54.83,1,1.37,2.05a20.73,20.73,0,0,1,.68,2.39c.13.24.56-.1.68.34.42,1.55,1.89,3.36,3.07,4.77a15.49,15.49,0,0,0,3.41,3.07c4.27-.73,7.69-2,11.6-.68.59-.43.89-1.15,2-1,.46-5.33-5.71-3.93-9.21-5.12a13.14,13.14,0,0,1-4.43-3.41c-.13-.19.17-.88,0-1-.46-.41-.33-.56-1-1,.35-2.48,1.93-3.74,3.07-5.45,0-5.53,2.57-6.42,6.14-8.19.29-2.22,4.15-3.18,5.11-5.8,1.59,1,1.69-.85,2.73-1.36,4.62,3.3,9.53-1.79,15.35-1.36,1.58,5,3.82,9.36,5.46,14.32A94.34,94.34,0,0,1,980.59,322a4.2,4.2,0,0,1-4.09,3.07c-1.59,4-6.7,3.34-10.23,5.12-1.83.92-2.51,3.43-4.78,3.07-.57.68-.92,1.59-2,1.71.79.78-.63,1.09-.34,2.38-2.89,2.67-4.54,6.18-6.14,9.89-1.06,2.49-4.79,5.08-7.16,6.83-2.45,5.16-5,10.18-10.23,12.61a8.78,8.78,0,0,1-2.39,3.07c0,.34.42.27.68.34-3.1,3.51-4.94,9.65-8.86,11.26a17.23,17.23,0,0,1-2.39,4.09c-.5.62-.61,2.07-1.36,3.07-2.12,2.83-5.33,2.81-8.88,4.1.1.77-.08,1.27-.68,1.36a37.68,37.68,0,0,0,1.37,3.75h2.73c0-2.32,3.12-3.39,6.14-3.75.66-1.95,2.63-2.59,3.41-4.43,3.33-.52,4.27-5.2,7.5-6.83.81-3.24,2.94-2.45,3.41-6.82a16.28,16.28,0,0,0,4.09-6.14c5.24-3.76,10.24-10.67,17.4-13.64,1.19-1.64,2.09-3.59,3.75-4.78-1-.75-.13-1.38-.34-3.06-.12-1.12.9-.58,1.36-1.37s.19-1.93.69-2.73a27.73,27.73,0,0,1,2-2c1.75-2,2.14-4.24,6.14-4.1,1.53-3.19,4.74-2.05,6.14-4.77,1.87-.25,2.81-.54,4.09-.68,2.18,1.34,1.49,3.82,1,6.48,1.4,1.31,3.18.92,5.11.34-.76-1.24.13-2,.34-3.07.64-3.25-.61-6.48.34-9.89.43-1.54.68-3.79,2.05-4.44-1-.6-.12-1.29-.34-2-.8-2.69-4-4.26-4.78-7.16a3.52,3.52,0,0,1-2.72-3.42c-1.25-.23-1.67-1.29-2.74-1.7.14-.68-.42-.83-.68-1.7a7,7,0,0,0,0-1.37c-.19-.29-1.13-.22-1.36-.68s.18-1.22,0-1.71c-.3-.78-1.31-1.3-1.71-2.05s-.46-2.34-1-3.4c-.76-1.45-1.38-1.26-1.36-2.05,0-1.57,1-3.05,3.06-2.73-.71-2,2.28-1.57,1-3.07,1.77-1.08,3.53-2.35,5.46-2,.91.15,1.42,1.27,2.72,2,.65.39,1.69.58,2.39,1s1.29,1.2,1.71,1.36c1.53.59,4.06.22,3.75,2.73C997.5,294.71,997.48,289.48,994.57,287.88Zm-77.76-72.31c.29-.29,1,.25,1,.35C918.15,216.52,916.57,215.81,916.81,215.57ZM895,192a.94.94,0,0,1-1-.68A.94.94,0,0,1,895,192ZM891.91,188c.44.45.45,1.27-.34,1.36,0-.45-.6-.31-.68-.68C891.38,188.55,891.46,188.07,891.91,188Zm-.68,3.41c-.1,1.25-1.51.95-1.7.68C890,191.69,890.78,191.71,891.23,191.36Zm-7.5-45.7c.17.5.5.86.68,1.36C883.58,147.35,883.28,145.49,883.73,145.66Zm-8.87,46.72c-1.1-.07-1.44.61-2.73.34C872.32,191.41,874.27,191.65,874.86,192.38ZM785.5,304.59c-.51-1-1.5-1.45-1.71-2.73C785,301.9,785.76,304.2,785.5,304.59Zm5.12,18.07c.44,0,.47-.43,1-.33C792.17,323.16,790.48,323.33,790.62,322.66Zm50.82,57.65c0-1,2-1.41,2-.35C842.68,380,842.48,380.55,841.44,380.31Zm-1.71,54.23c1.38-1.2.8,1.09,0,0Zm30.7-59c0-1,.77-1.27,1.36-1.71C871.88,374.94,871.39,375.47,870.43,375.53Zm41.94-17.73h1c.06.74-.28,1.08-1,1Zm-2,1.7c-.25,1.35-1.71,1.47-3.41,1.37C906.87,358.48,908.33,359.72,910.33,359.5Zm-3.75-8.87c-.91-.34-1.94-.56-2.05-1.7C905.66,349.05,906,350,906.58,350.63Zm-4.09,12.28c0-.52.93-1.12.68,0a35.82,35.82,0,0,1-8.53,2c-.58-1,1.41-.56,1.71-.68.07,0-.08-.66,0-.69A20.12,20.12,0,0,1,902.49,362.91Zm-75.38-35.13q.09,1.13-1,1Q826,327.69,827.11,327.78Zm-32.4-28.31q-.09-1.11,1-1C795.8,299.19,795.45,299.54,794.71,299.47Zm24.56-131c1,1.15-1.26,1,0,0Zm-.69,3.41c.19-.61.18-1.42.69-1.71C819.12,170.86,819.73,172.27,818.58,171.92ZM820,192a2.86,2.86,0,0,1-.68,2.05C819.47,193.38,818.72,191.72,820,192Zm-.68,9.21a6.94,6.94,0,0,1,.68-3.41C819.94,199.25,820.85,200.83,819.27,201.25Zm7.84-44.68c.45,0,.31-.6.68-.68C828.18,156.59,827.26,157.51,827.11,156.57Zm2.73,67.53c-.05-.4-.61-.77,0-1C829.89,223.48,830.45,223.85,829.84,224.1Zm30-35.81c-2.23,2.68-5.28,4.37-8.18,6.14-1,.62-2.52,1.1-3.41,1.7-.22.15-.07.86-.34,1s-1.16,0-1.71.34c-1.17.64-2.86,2.36-3.75,1,.23,1.37-.9,1.37-2.05,1.37-.86-2.45.15-5.88,0-8.87,0-.57-.6-1.06-.68-1.71-.32-2.56.8-5.43.68-8.18-.22-5.2-1.54-8.78-1.36-13.3,0-.54.87-.27.68-1-.75-4.68.83-14.4-.34-20.12.42,0,.81-.1.68-.68-.37-1.78-1.32-4.29-1-6.48.09-.65.66-.71.68-1.37s-.44-1.06-.34-1.7.63-1.06.68-1.71c.35-4.9,0-10,.34-15,1.05-.74,2.55-1.79,1.71-3.42.93,0,.68.58,1.36,0-.75,1.37.2,2.34.68,3.42.46-.11.65-.49,1.37-.35,4.21,3.3,8,7,11.93,10.58.71,1.57,1.43,3.12,3.07,3.75-.33,1.36,1,1,.69,2.39.72.3,1,1,2,1,.43,2.18,1.9,3.75,2.39,5.8.13.56-.18,1.47,0,2,.3.95,1.09,1.69,1.37,2.73.34,1.29-.27,2.8,1,3.76-.6,5.08-.41,8.22-1.37,13.64.18.5.51.86.69,1.36a8.07,8.07,0,0,1-1.37,1.37c.35,4,.58,6.48-1,9.55,2.54,2.9-.54,5.73-1,9.2C862.25,186.82,862,188.52,859.85,188.29Zm3.75,39.56c0-.4-.6-.77,0-1C863.65,227.23,864.21,227.6,863.6,227.85Zm44,51.5c-.84.53-1-1.15-.34-1,0,.21,0,.4.34.34Zm57,8.87c1.49-.87,1.94,1.23,0,0ZM985,320.62c1.41-.58.49,2.52,0,1C985.55,321.55,985.26,320.9,985,320.62Z" transform="translate(-3.32 -7.56)"/></svg>