<?xml version="1.0" encoding="utf-8"?>
<!-- Generator: Adobe Illustrator 19.1.0, SVG Export Plug-In . SVG Version: 6.00 Build 0)  -->
<svg version="1.1" id="METALSUCKS_LOGO" xmlns="http://www.w3.org/2000/svg" xmlns:xlink="http://www.w3.org/1999/xlink" x="0px"
	 y="0px" viewBox="0 0 1154 334" style="enable-background:new 0 0 1154 334;" xml:space="preserve">
<style type="text/css">
	.st0{fill:#FFFFFF;}
</style>
<g>
	<path class="st0" d="M414.6,26.8h-35.7l-25,177.3h39.8l3.5-32.6h17.4v32.6h35.2V26.8H414.6L414.6,26.8z M414.6,138.1h-14.4
		l6.2-73.7h8.2V138.1z"/>
	<polygon class="st0" points="364.5,26.8 277.8,26.8 282.5,60.2 300.8,60.2 300.8,204.1 341.6,204.1 341.6,60.2 359.8,60.2 	"/>
	<polygon class="st0" points="711.2,170.7 693.4,170.7 693.4,32.5 652.6,26.8 652.6,178.4 679.8,204.1 752,204.1 752,26.8 
		711.2,26.8 	"/>
	<polygon class="st0" points="253.3,170.7 253.3,126.9 277.6,126.9 272.9,93.6 253.3,93.6 253.3,60.2 268.2,60.2 263.5,26.8 
		212.5,26.8 212.5,176.9 212.5,204.1 212.5,210 253.3,204.1 288.4,204.1 283.7,170.7 	"/>
	<polygon class="st0" points="974.5,26.8 974.1,26.8 930.5,32.9 906,102.5 905.5,102.5 905.5,32.6 864.7,26.8 864.7,204.1 
		905.5,204.1 905.5,128.4 906,128.4 935.3,203.3 982.4,210 939.1,109.6 	"/>
	<polygon class="st0" points="793.5,26.8 764.3,26.8 764.3,204.1 793.5,204.1 852.4,204.1 852.4,204.1 852.4,138.4 822.9,134.3 
		822.9,170.7 805.1,170.7 805.1,60.2 822.9,60.2 822.9,92.7 852.4,96.9 852.4,26.8 852.4,26.8 	"/>
	<path class="st0" d="M1149.7,232.5c-5.7,0-10.3-9.9-10.7-22.5h-0.1v-67.1l-31.6,9.3l-99.6-75l15-35h41c22.3,0,40.4,7.7,40.4,17.2
		c0,2.1-0.9,4.1-2.5,5.9c5.4-4.3,9.8-10.5,12.5-17.9l16.4-45.9h-90.4l0-0.1h-43.9l-43.5,102l145.4,109.5v11.7h-0.1
		c0,56.3-44.1,102-98.6,102c-3.2,0-6.4-0.2-9.5-0.5c12.4,4.3,25.7,6.7,39.4,6.7c58.9,0,108.5-42.9,123.6-101.4
		C1151.9,232.1,1150.8,232.5,1149.7,232.5z"/>
	<path class="st0" d="M126.6,42.1l21.8,0l-29.3,61.5v0.3L82.6,1.2H37.1L37,1.3H17.3H1l16.4,45.9c2.7,7.4,7.1,13.6,12.5,17.9
		c-1.6-1.8-2.5-3.8-2.5-5.9c0-5.4,6-10.3,15.3-13.4V210h-0.1c-0.4,12.6-5,22.5-10.7,22.5c-1.2,0-2.3-0.4-3.3-1.2
		c15.1,58.5,64.7,101.4,123.6,101.4c13.8,0,27-2.4,39.4-6.7c-3.1,0.3-6.3,0.5-9.5,0.5c-54.5,0-98.6-45.7-98.6-102h-0.1V108.3
		l35.6,74.8v-0.3l42.6-89.5v153.4l40.8-36.8V1.2l-90.5,0.1L126.6,42.1z"/>
	<path class="st0" d="M626.9,64.3l13.4-37.5h-8.4h-57.5h-5.8l-26.7,25.7l-0.1,68.6l57.8,8.1v41.5h-3.1c-16.6-0.7-29.5-6.7-29.5-13.9
		c0-1.7,0.7-3.3,2-4.8c-4.4,3.5-8,8.6-10.2,14.6l-13.4,37.5h25.5h40.4h29.2V101.7l-57.6-8.1V60.2l0.1-0.1h2.9c18.2,0,33,6.3,33,14
		c0,1.7-0.7,3.3-2,4.8C621.1,75.4,624.7,70.4,626.9,64.3z"/>
	<path class="st0" d="M527.2,170.8L527.2,170.8l-24.3-0.1V26.8l-40.8,5.7v171.6h33.9c17.4,0.4,31.3,6.5,31.3,14c0,1.7-0.7,3.3-2,4.8
		c4.4-3.5,8-8.6,10.2-14.6l13.4-37.5H527.2z"/>
</g>
</svg>
